<svg width="22" height="23" viewBox="0 0 22 23" fill="none" xmlns="http://www.w3.org/2000/svg">
<path d="M11.0003 12.7509C10.0462 12.7521 9.12128 12.4225 8.38294 11.8183C7.6446 11.2141 7.13853 10.3726 6.9509 9.43718C6.93594 9.33865 6.94259 9.23804 6.97038 9.14233C6.99816 9.04662 7.04643 8.9581 7.11182 8.88289C7.17722 8.80768 7.25819 8.7476 7.34911 8.70679C7.44003 8.66598 7.53874 8.64543 7.6384 8.64656C7.80218 8.64418 7.96144 8.70035 8.08748 8.80497C8.21352 8.90958 8.29807 9.05576 8.3259 9.21718C8.45538 9.83519 8.79359 10.3898 9.28372 10.7879C9.77385 11.186 10.386 11.4033 11.0175 11.4033C11.6489 11.4033 12.2611 11.186 12.7512 10.7879C13.2413 10.3898 13.5795 9.83519 13.709 9.21718C13.7369 9.05576 13.8214 8.90958 13.9474 8.80497C14.0735 8.70035 14.2327 8.64418 14.3965 8.64656C14.4962 8.64543 14.5949 8.66598 14.6858 8.70679C14.7767 8.7476 14.8577 8.80768 14.9231 8.88289C14.9885 8.9581 15.0368 9.04662 15.0645 9.14233C15.0923 9.23804 15.099 9.33865 15.084 9.43718C14.8953 10.3784 14.3841 11.2244 13.6387 11.8292C12.8933 12.4341 11.9602 12.7601 11.0003 12.7509Z" fill="white"/>
<path d="M17.1187 21.8116H4.88124C4.60149 21.8119 4.32459 21.7553 4.06739 21.6453C3.81019 21.5353 3.57806 21.3741 3.38513 21.1715C3.1922 20.9689 3.04249 20.7292 2.94512 20.4669C2.84775 20.2047 2.80475 19.9253 2.81874 19.6459L3.37562 7.79344C3.39866 7.26207 3.6261 6.76014 4.01042 6.39247C4.39474 6.0248 4.90625 5.81981 5.43812 5.82031H16.5619C17.0937 5.81981 17.6052 6.0248 17.9896 6.39247C18.3739 6.76014 18.6013 7.26207 18.6244 7.79344L19.1812 19.6459C19.1952 19.9253 19.1522 20.2047 19.0549 20.4669C18.9575 20.7292 18.8078 20.9689 18.6149 21.1715C18.4219 21.3741 18.1898 21.5353 17.9326 21.6453C17.6754 21.7553 17.3985 21.8119 17.1187 21.8116ZM5.43812 7.20219C5.25578 7.20219 5.08091 7.27462 4.95198 7.40355C4.82305 7.53248 4.75062 7.70735 4.75062 7.88969L4.19374 19.7147C4.18908 19.8078 4.20341 19.9009 4.23587 19.9884C4.26833 20.0758 4.31823 20.1557 4.38254 20.2232C4.44685 20.2907 4.52422 20.3445 4.60996 20.3811C4.69569 20.4178 4.78799 20.4367 4.88124 20.4366H17.1187C17.212 20.4367 17.3043 20.4178 17.39 20.3811C17.4758 20.3445 17.5531 20.2907 17.6174 20.2232C17.6818 20.1557 17.7317 20.0758 17.7641 19.9884C17.7966 19.9009 17.8109 19.8078 17.8062 19.7147L17.2494 7.86219C17.2494 7.67985 17.1769 7.50498 17.048 7.37605C16.9191 7.24712 16.7442 7.17469 16.5619 7.17469L5.43812 7.20219Z" fill="white"/>
<path d="M15.125 6.51562H13.75V5.3125C13.75 4.58315 13.4603 3.88368 12.9445 3.36796C12.4288 2.85223 11.7293 2.5625 11 2.5625C10.2707 2.5625 9.57118 2.85223 9.05546 3.36796C8.53973 3.88368 8.25 4.58315 8.25 5.3125V6.51562H6.875V5.3125C6.875 4.21848 7.3096 3.16927 8.08318 2.39568C8.85677 1.6221 9.90598 1.1875 11 1.1875C12.094 1.1875 13.1432 1.6221 13.9168 2.39568C14.6904 3.16927 15.125 4.21848 15.125 5.3125V6.51562Z" fill="white"/>
</svg>
