<svg width="100" height="101" viewBox="0 0 100 101" fill="none" xmlns="http://www.w3.org/2000/svg">
<path d="M76.5797 63.8891C77.9491 63.3705 79.1288 62.4484 79.9627 61.2448C80.7967 60.0412 81.2456 58.6127 81.25 57.1484C81.25 55.698 80.6738 54.307 79.6482 53.2814C78.6226 52.2559 77.2317 51.6797 75.7812 51.6797C74.3308 51.6797 72.9399 52.2559 71.9143 53.2814C70.8887 54.307 70.3125 55.698 70.3125 57.1484C70.3125 57.5628 70.4771 57.9603 70.7701 58.2533C71.0632 58.5463 71.4606 58.7109 71.875 58.7109C72.2894 58.7109 72.6868 58.5463 72.9799 58.2533C73.2729 57.9603 73.4375 57.5628 73.4375 57.1484C73.4375 56.5268 73.6844 55.9307 74.124 55.4912C74.5635 55.0516 75.1596 54.8047 75.7812 54.8047C76.4029 54.8047 76.999 55.0516 77.4385 55.4912C77.8781 55.9307 78.125 56.5268 78.125 57.1484C78.1224 57.9769 77.8685 58.7851 77.3967 59.4661C76.9249 60.1472 76.2575 60.6689 75.4828 60.9625C73.9671 61.5361 72.6612 62.5564 71.738 63.8884C70.8148 65.2204 70.3177 66.8012 70.3125 68.4219V68.8672C70.3125 69.2816 70.4771 69.679 70.7701 69.972C71.0632 70.2651 71.4606 70.4297 71.875 70.4297H79.6875C80.1019 70.4297 80.4993 70.2651 80.7924 69.972C81.0854 69.679 81.25 69.2816 81.25 68.8672C81.25 68.4528 81.0854 68.0554 80.7924 67.7623C80.4993 67.4693 80.1019 67.3047 79.6875 67.3047H73.5703C73.7553 66.5331 74.1262 65.8184 74.6508 65.2231C75.1753 64.6277 75.8375 64.1698 76.5797 63.8891Z" fill="#B68050"/>
<path d="M50 1.67969C40.42 1.67969 31.0551 4.5205 23.0896 9.84288C15.1241 15.1653 8.91573 22.7302 5.24961 31.581C1.58349 40.4318 0.624263 50.1709 2.49323 59.5669C4.36221 68.9628 8.97543 77.5936 15.7495 84.3677C22.5236 91.1418 31.1544 95.755 40.5503 97.624C49.9463 99.4929 59.6855 98.5337 68.5363 94.8676C77.387 91.2015 84.952 84.9931 90.2743 77.0276C95.5967 69.0621 98.4375 59.6972 98.4375 50.1172C98.4226 37.2753 93.3146 24.9637 84.2341 15.8831C75.1535 6.80258 62.8419 1.69457 50 1.67969ZM7.81252 50.1172C7.8059 42.0393 10.1205 34.1295 14.4807 27.3294C18.841 20.5294 25.0633 15.1253 32.4071 11.7605C39.7509 8.39571 47.9068 7.21187 55.9042 8.3499C63.9016 9.48793 71.4036 12.8999 77.5172 18.1797L18.0625 77.6344C11.4457 69.9944 7.80632 60.2242 7.81252 50.1172ZM50 92.3047C39.893 92.3109 30.1228 88.6715 22.4828 82.0547L81.9375 22.6C87.2173 28.7137 90.6293 36.2156 91.7673 44.213C92.9053 52.2104 91.7215 60.3663 88.3567 67.7101C84.9919 75.0539 79.5879 81.2762 72.7878 85.6365C65.9877 89.9967 58.078 92.3113 50 92.3047Z" fill="#B68050"/>
<path d="M59.375 52.4609C59.3743 53.1709 59.1801 53.8672 58.8134 54.4751C58.4466 55.0829 57.9211 55.5794 57.2934 55.911C56.6657 56.2426 55.9594 56.3969 55.2506 56.3572C54.5418 56.3176 53.8571 56.0855 53.2703 55.6859L48.8281 60.1281C50.2973 61.4056 52.1032 62.2332 54.03 62.512C55.9569 62.7909 57.9232 62.5093 59.6944 61.7009C61.4655 60.8924 62.9665 59.5913 64.0181 57.9528C65.0698 56.3144 65.6276 54.4078 65.625 52.4609V43.3313L59.375 49.5813V52.4609ZM55.4688 28.2422C52.7762 28.2455 50.1948 29.3166 48.2909 31.2205C46.3869 33.1245 45.3158 35.7059 45.3125 38.3984V45.9656L51.5625 39.7156V38.3984C51.5543 37.7865 51.6919 37.1815 51.9639 36.6333C52.236 36.0851 52.6346 35.6096 53.1269 35.246C53.6191 34.8824 54.1909 34.6413 54.7948 34.5426C55.3988 34.4438 56.0176 34.4903 56.6 34.6781L61.2328 30.0453C59.5405 28.8701 57.5291 28.2409 55.4688 28.2422ZM28.9062 34.4922C29.9423 34.4922 30.9358 34.9037 31.6684 35.6363C32.4009 36.3689 32.8125 37.3624 32.8125 38.3984C32.8125 39.2272 33.1417 40.0221 33.7278 40.6081C34.3138 41.1942 35.1087 41.5234 35.9375 41.5234C36.7663 41.5234 37.5612 41.1942 38.1472 40.6081C38.7333 40.0221 39.0625 39.2272 39.0625 38.3984C39.0625 35.7048 37.9925 33.1216 36.0878 31.2169C34.1831 29.3122 31.5999 28.2422 28.9062 28.2422C26.2126 28.2422 23.6294 29.3122 21.7247 31.2169C19.82 33.1216 18.75 35.7048 18.75 38.3984V52.4609C18.7526 55.1125 19.792 57.658 21.6463 59.5534C23.5005 61.4488 26.0225 62.5439 28.6734 62.6047L39.0406 52.2375C38.953 51.4545 38.5727 50.7334 37.9761 50.2188C37.3794 49.7042 36.6104 49.434 35.823 49.4622C35.0356 49.4905 34.2879 49.8151 33.7296 50.3712C33.1714 50.9272 32.8438 51.6736 32.8125 52.4609C32.8125 53.4969 32.4009 54.4905 31.6684 55.2231C30.9358 55.9556 29.9423 56.3672 28.9062 56.3672C27.8702 56.3672 26.8767 55.9556 26.1441 55.2231C25.4116 54.4905 25 53.4969 25 52.4609V38.3984C25 37.3624 25.4116 36.3689 26.1441 35.6363C26.8767 34.9037 27.8702 34.4922 28.9062 34.4922Z" fill="#B68050"/>
</svg>
