<svg width="25" height="24" viewBox="0 0 25 24" fill="none" xmlns="http://www.w3.org/2000/svg">
<path fill-rule="evenodd" clip-rule="evenodd" d="M7.5 15.9013V18.9951L12.5622 16.0038L13.0913 15.9951C15.1952 15.9607 17.0886 15.7488 18.5044 15.5334C19.3979 15.3975 20.0187 14.7739 20.1536 13.9909C20.3406 12.9049 20.5 11.5289 20.5 10C20.5 8.47108 20.3406 7.09512 20.1536 6.00907C20.0187 5.22608 19.3979 4.60252 18.5044 4.46657C16.9559 4.23096 14.8383 4 12.5 4C10.1617 4 8.04408 4.23096 6.49562 4.46657C5.60214 4.60252 4.9813 5.22608 4.84643 6.00907C4.65936 7.09512 4.5 8.47108 4.5 10C4.5 11.5289 4.65936 12.9049 4.84643 13.9909C4.96355 14.6709 5.43854 15.2158 6.13108 15.4461L7.5 15.9013ZM2.87546 5.66957C3.16565 3.98488 4.50472 2.74648 6.19477 2.48932C7.81411 2.24293 10.0356 2 12.5 2C14.9644 2 17.1859 2.24293 18.8052 2.48932C20.4953 2.74648 21.8344 3.98488 22.1245 5.66957C22.3268 6.84372 22.5 8.33525 22.5 10C22.5 11.6647 22.3268 13.1563 22.1245 14.3304C21.8344 16.0151 20.4953 17.2535 18.8052 17.5107C17.3238 17.7361 15.3384 17.9586 13.1241 17.9949L7.00873 21.6085C6.34211 22.0024 5.5 21.5219 5.5 20.7476V17.344C4.14656 16.8939 3.12456 15.7766 2.87546 14.3304C2.67321 13.1563 2.5 11.6647 2.5 10C2.5 8.33525 2.67321 6.84372 2.87546 5.66957Z" fill="#777E91"/>
<path fill-rule="evenodd" clip-rule="evenodd" d="M7.5 7C6.94772 7 6.5 7.44772 6.5 8C6.5 8.55228 6.94772 9 7.5 9H17.5C18.0523 9 18.5 8.55228 18.5 8C18.5 7.44772 18.0523 7 17.5 7H7.5ZM7.5 11C6.94772 11 6.5 11.4477 6.5 12C6.5 12.5523 6.94772 13 7.5 13H11.5C12.0523 13 12.5 12.5523 12.5 12C12.5 11.4477 12.0523 11 11.5 11H7.5Z" fill="#777E91"/>
</svg>
