<svg width="30" height="31" viewBox="0 0 30 31" fill="none" xmlns="http://www.w3.org/2000/svg">
<path d="M26.9387 18.6367C26.69 18.6367 26.4516 18.7355 26.2758 18.9113C26.0999 19.0871 26.0012 19.3256 26.0012 19.5742V22.7758C26.0012 23.5304 25.7014 24.2541 25.1678 24.7877C24.6342 25.3213 23.9105 25.6211 23.1559 25.6211H6.84336C6.08874 25.6211 5.36502 25.3213 4.83142 24.7877C4.29782 24.2541 3.99805 23.5304 3.99805 22.7758V19.5742C3.99805 19.3256 3.89927 19.0871 3.72346 18.9113C3.54764 18.7355 3.30919 18.6367 3.06055 18.6367C2.81191 18.6367 2.57345 18.7355 2.39763 18.9113C2.22182 19.0871 2.12305 19.3256 2.12305 19.5742V22.7758C2.12429 24.0273 2.622 25.2272 3.50696 26.1122C4.39193 26.9971 5.59184 27.4949 6.84336 27.4961H23.1559C24.4074 27.4949 25.6073 26.9971 26.4923 26.1122C27.3772 25.2272 27.8749 24.0273 27.8762 22.7758V19.5742C27.8762 19.3256 27.7774 19.0871 27.6016 18.9113C27.4258 18.7355 27.1873 18.6367 26.9387 18.6367Z" fill="white"/>
<path d="M14.3341 21.3742C14.4213 21.4621 14.525 21.5318 14.6392 21.5794C14.7534 21.627 14.876 21.6515 14.9997 21.6515C15.1235 21.6515 15.246 21.627 15.3603 21.5794C15.4745 21.5318 15.5782 21.4621 15.6654 21.3742L20.9997 16.0398C21.1486 15.8607 21.2254 15.6327 21.2153 15.4C21.2053 15.1674 21.1089 14.9468 20.9452 14.7813C20.7814 14.6157 20.5619 14.5171 20.3293 14.5045C20.0968 14.4919 19.8679 14.5664 19.6872 14.7133L15.9372 18.4633V4.52734C15.9372 4.2787 15.8385 4.04025 15.6627 3.86443C15.4868 3.68862 15.2484 3.58984 14.9997 3.58984C14.7511 3.58984 14.5126 3.68862 14.3368 3.86443C14.161 4.04025 14.0622 4.2787 14.0622 4.52734V18.4492L10.3122 14.6992C10.1363 14.5233 9.89774 14.4245 9.64896 14.4245C9.40018 14.4245 9.16159 14.5233 8.98568 14.6992C8.80976 14.8751 8.71094 15.1137 8.71094 15.3625C8.71094 15.6113 8.80976 15.8499 8.98568 16.0258L14.3341 21.3742Z" fill="white"/>
</svg>
