<svg width="24" height="24" viewBox="0 0 24 24" fill="none" xmlns="http://www.w3.org/2000/svg">
<path d="M16.0998 13.3001L14.6498 11.8501C14.7998 11.0668 14.5748 10.3334 13.9748 9.6501C13.3748 8.96676 12.5998 8.7001 11.6498 8.8501L10.1998 7.4001C10.4831 7.26676 10.7705 7.16676 11.0618 7.1001C11.3538 7.03343 11.6665 7.0001 11.9998 7.0001C13.2498 7.0001 14.3125 7.43743 15.1878 8.3121C16.0625 9.18743 16.4998 10.2501 16.4998 11.5001C16.4998 11.8334 16.4665 12.1461 16.3998 12.4381C16.3331 12.7294 16.2331 13.0168 16.0998 13.3001ZM19.2998 16.4501L17.8498 15.0501C18.4831 14.5668 19.0458 14.0374 19.5378 13.4621C20.0291 12.8874 20.4498 12.2334 20.7998 11.5001C19.9665 9.81676 18.7705 8.4791 17.2118 7.4871C15.6538 6.49576 13.9165 6.0001 11.9998 6.0001C11.5165 6.0001 11.0415 6.03343 10.5748 6.1001C10.1081 6.16676 9.6498 6.26676 9.1998 6.4001L7.64981 4.8501C8.33314 4.56676 9.03314 4.3541 9.7498 4.2121C10.4665 4.07076 11.2165 4.0001 11.9998 4.0001C14.3831 4.0001 16.5248 4.6291 18.4248 5.8871C20.3248 7.14576 21.7498 8.78343 22.6998 10.8001C22.7498 10.8834 22.7831 10.9874 22.7998 11.1121C22.8165 11.2374 22.8248 11.3668 22.8248 11.5001C22.8248 11.6334 22.8125 11.7624 22.7878 11.8871C22.7625 12.0124 22.7331 12.1168 22.6998 12.2001C22.3165 13.0501 21.8375 13.8334 21.2628 14.5501C20.6875 15.2668 20.0331 15.9001 19.2998 16.4501ZM19.0998 21.9001L15.5998 18.4501C15.0165 18.6334 14.4291 18.7711 13.8378 18.8631C13.2458 18.9544 12.6331 19.0001 11.9998 19.0001C9.61647 19.0001 7.4748 18.3711 5.5748 17.1131C3.6748 15.8544 2.2498 14.2168 1.2998 12.2001C1.2498 12.1168 1.21647 12.0124 1.1998 11.8871C1.18314 11.7624 1.1748 11.6334 1.1748 11.5001C1.1748 11.3668 1.18314 11.2418 1.1998 11.1251C1.21647 11.0084 1.2498 10.9084 1.2998 10.8251C1.6498 10.0751 2.06647 9.38343 2.5498 8.7501C3.03314 8.11676 3.56647 7.53343 4.1498 7.0001L2.0748 4.9001C1.89147 4.71676 1.7998 4.48743 1.7998 4.2121C1.7998 3.93743 1.8998 3.7001 2.0998 3.5001C2.28314 3.31676 2.51647 3.2251 2.7998 3.2251C3.08314 3.2251 3.31647 3.31676 3.4998 3.5001L20.4998 20.5001C20.6831 20.6834 20.7791 20.9128 20.7878 21.1881C20.7958 21.4628 20.6998 21.7001 20.4998 21.9001C20.3165 22.0834 20.0831 22.1751 19.7998 22.1751C19.5165 22.1751 19.2831 22.0834 19.0998 21.9001ZM5.5498 8.4001C5.06647 8.83343 4.6248 9.30843 4.2248 9.8251C3.8248 10.3418 3.48314 10.9001 3.1998 11.5001C4.03314 13.1834 5.22881 14.5208 6.78681 15.5121C8.34547 16.5041 10.0831 17.0001 11.9998 17.0001C12.3331 17.0001 12.6581 16.9794 12.9748 16.9381C13.2915 16.8961 13.6165 16.8501 13.9498 16.8001L13.0498 15.8501C12.8665 15.9001 12.6915 15.9374 12.5248 15.9621C12.3581 15.9874 12.1831 16.0001 11.9998 16.0001C10.7498 16.0001 9.68714 15.5628 8.8118 14.6881C7.93714 13.8128 7.4998 12.7501 7.4998 11.5001C7.4998 11.3168 7.51214 11.1418 7.53681 10.9751C7.56214 10.8084 7.5998 10.6334 7.64981 10.4501L5.5498 8.4001Z" fill="#C2BDB9"/>
</svg>
