<svg width="25" height="24" viewBox="0 0 25 24" fill="none" xmlns="http://www.w3.org/2000/svg">
<path d="M19.3791 12.8888L12.5076 19.4996L5.63619 12.8888M5.63619 12.8888C5.18296 12.4604 4.82595 11.9454 4.58766 11.3764C4.34936 10.8073 4.23494 10.1965 4.25159 9.58241C4.26824 8.9683 4.41561 8.36419 4.68442 7.80813C4.95322 7.25206 5.33764 6.75609 5.81347 6.35143C6.28929 5.94677 6.84621 5.64221 7.44917 5.4569C8.05212 5.2716 8.68804 5.20958 9.31688 5.27474C9.94572 5.3399 10.5539 5.53084 11.103 5.83553C11.6521 6.14021 12.1304 6.55205 12.5076 7.04511C12.8865 6.55563 13.3653 6.14739 13.9141 5.84594C14.4628 5.54448 15.0698 5.35631 15.6968 5.29318C16.3239 5.23005 16.9577 5.29334 17.5584 5.47907C18.1591 5.66481 18.7139 5.969 19.1881 6.3726C19.6622 6.7762 20.0455 7.27053 20.314 7.82464C20.5824 8.37876 20.7302 8.98073 20.7481 9.59289C20.7661 10.205 20.6537 10.8142 20.4182 11.3823C20.1826 11.9503 19.8288 12.465 19.3791 12.8941" stroke="#EFF0F2" stroke-width="1.5" stroke-linecap="round" stroke-linejoin="round"/>
</svg>
