<svg width="49" height="48" viewBox="0 0 49 48" fill="none" xmlns="http://www.w3.org/2000/svg">
<path d="M24.1093 47.9999C37.3642 47.9999 48.1094 37.2548 48.1094 24C48.1094 10.7451 37.3642 0 24.1093 0C10.8545 0 0.109375 10.7451 0.109375 24C0.109375 37.2548 10.8545 47.9999 24.1093 47.9999Z" fill="#D89551"/>
<path d="M28.3836 9.14395C23.5215 6.98828 14.8359 7.24003 14.002 15.5795C20.8466 10.9692 31.2945 13.1091 31.0428 13.3609C22.0582 12.228 16.9129 15.0445 14.5527 16.917C20.9725 20.3314 23.7418 18.7894 27.7384 17.6408C31.4519 16.2404 35.8104 15.7526 36.2982 15.7526C35.6846 15.2333 34.0009 11.5199 28.3836 9.14395Z" fill="#2A0B0D"/>
<path d="M10.572 24.4211C14.0809 32.7449 19.0216 35.7974 21.8381 36.9146C21.6493 29.7238 18.88 28.0401 15.8903 25.1921C12.7276 22.7375 10.1472 19.2286 9.92687 18.7408C9.86393 19.5119 7.53516 22.8004 8.24322 28.8426C8.77821 34.1925 13.3885 41.6508 21.0514 38.079C13.6403 34.46 10.2573 24.2952 10.572 24.4211Z" fill="#2A0B0D"/>
<path d="M37.007 20.7091C37.605 28.9856 30.4771 37.0104 30.4141 36.6328C35.9056 29.3475 36.0315 23.4942 35.5752 20.5203C29.4543 24.3438 29.3442 27.5695 28.3843 31.5819C27.8179 35.5785 26.0713 39.5752 25.7881 40C26.4962 39.7168 30.5558 40.063 35.4021 36.3495C39.7292 33.234 43.8517 25.5869 37.007 20.7091Z" fill="#2A0B0D"/>
</svg>
