<svg width="48" height="38" viewBox="0 0 48 38" fill="none" xmlns="http://www.w3.org/2000/svg">
<path d="M4.53424 34.2C1.86758 31.2667 0.267578 28.0667 0.267578 22.7334C0.267578 13.4 6.93425 5.13337 16.2676 0.866699L18.6676 4.33337C9.86758 9.13337 8.00091 15.2667 7.46758 19.2667C8.80091 18.4667 10.6676 18.2 12.5342 18.4667C17.3342 19 21.0676 22.7334 21.0676 27.8C21.0676 30.2 20.0009 32.6 18.4009 34.4667C16.5342 36.3334 14.4009 37.1334 11.7342 37.1334C8.80091 37.1334 6.13424 35.8 4.53424 34.2ZM31.2009 34.2C28.5342 31.2667 26.9342 28.0667 26.9342 22.7334C26.9342 13.4 33.6009 5.13337 42.9342 0.866699L45.3342 4.33337C36.5342 9.13337 34.6676 15.2667 34.1342 19.2667C35.4676 18.4667 37.3342 18.2 39.2009 18.4667C44.0009 19 47.7342 22.7334 47.7342 27.8C47.7342 30.2 46.6676 32.6 45.0676 34.4667C43.4676 36.3334 41.0676 37.1334 38.4009 37.1334C35.4676 37.1334 32.8009 35.8 31.2009 34.2Z" fill="#B68050"/>
</svg>
