<svg width="19" height="18" viewBox="0 0 19 18" fill="none" xmlns="http://www.w3.org/2000/svg">
<path d="M9.41946 13.4106L12.966 15.6573C13.4194 15.9441 13.9819 15.5172 13.8475 14.9879L12.8231 10.9576C12.7942 10.8453 12.7976 10.7271 12.8328 10.6167C12.868 10.5062 12.9337 10.408 13.0223 10.3332L16.2026 7.68663C16.62 7.339 16.4051 6.64544 15.868 6.61056L11.715 6.34056C11.6032 6.33263 11.4959 6.2931 11.4057 6.22658C11.3155 6.16006 11.246 6.06928 11.2054 5.96481L9.65627 2.06444C9.61409 1.95359 9.53921 1.85819 9.44157 1.79087C9.34392 1.72355 9.22812 1.6875 9.10952 1.6875C8.99092 1.6875 8.87512 1.72355 8.77748 1.79087C8.67983 1.85819 8.60495 1.95359 8.56277 2.06444L7.01365 5.96481C6.9731 6.06939 6.90366 6.16028 6.81343 6.22691C6.7232 6.29354 6.6159 6.33315 6.50402 6.34113L2.35108 6.61113C1.81446 6.64544 1.59846 7.339 2.0164 7.68663L5.19677 10.3338C5.28526 10.4085 5.35088 10.5067 5.3861 10.617C5.42132 10.7273 5.42472 10.8454 5.3959 10.9576L4.4464 14.6954C4.28496 15.3304 4.96052 15.8429 5.5039 15.4981L8.80015 13.4106C8.89279 13.3517 9.0003 13.3204 9.11008 13.3204C9.21987 13.3204 9.32738 13.3517 9.42002 13.4106H9.41946Z" fill="#FF8A00"/>
</svg>
