<svg width="49" height="48" viewBox="0 0 49 48" fill="none" xmlns="http://www.w3.org/2000/svg">
<path d="M24.1093 47.9999C37.3642 47.9999 48.1094 37.2548 48.1094 24C48.1094 10.7451 37.3642 0 24.1093 0C10.8545 0 0.109375 10.7451 0.109375 24C0.109375 37.2548 10.8545 47.9999 24.1093 47.9999Z" fill="#D89551"/>
<path d="M35.4235 12.6859C32.4082 9.67062 28.3878 8 24.1094 8C19.8309 8 15.8242 9.65704 12.7953 12.6859C9.78002 15.7012 8.10938 19.7216 8.10938 24C8.10938 28.2784 9.76644 32.2852 12.7953 35.3141C15.8106 38.3294 19.8309 40 24.1094 40C28.3878 40 32.3946 38.343 35.4235 35.3141C38.4388 32.2988 40.1094 28.2784 40.1094 24C40.1094 19.7216 38.4524 15.7012 35.4235 12.6859ZM38.2758 24C38.2758 27.5178 36.9719 30.7368 34.853 33.2088L31.8513 30.2071L34.5406 25.6435C34.6765 25.4262 34.5949 25.1409 34.3776 25.0187L27.1518 20.7674L25.7393 23.1715C25.7529 23.2122 25.7529 23.2666 25.7529 23.3209V24.1087L24.2452 22.601H24.4625L26.2962 19.4771C26.3505 19.382 26.4184 19.3005 26.4999 19.2462C26.7308 19.0832 27.016 19.0832 27.2469 19.219L28.3743 19.8846V14.2071C28.3743 13.9491 28.1705 13.7453 27.9125 13.7453H19.9804C19.7223 13.7453 19.5186 13.9491 19.5186 14.2071V17.8879L14.9141 13.2835C17.3861 11.1511 20.6051 9.86077 24.123 9.86077C31.9192 9.84719 38.2758 16.1902 38.2758 24ZM31.5118 25.9151C31.2945 25.9151 31.1179 25.7385 31.1179 25.5212C31.1179 25.3039 31.2945 25.1273 31.5118 25.1273C31.7291 25.1273 31.9057 25.3039 31.9057 25.5212C31.8921 25.7385 31.7155 25.9151 31.5118 25.9151ZM32.0958 26.73C32.3131 26.73 32.4897 26.9066 32.4897 27.1239C32.4897 27.3413 32.3131 27.5178 32.0958 27.5178C31.8785 27.5178 31.7019 27.3413 31.7019 27.1239C31.7155 26.9066 31.8921 26.73 32.0958 26.73ZM32.4897 25.9151C32.4897 25.6978 32.6663 25.5212 32.8836 25.5212C33.1009 25.5212 33.2775 25.6978 33.2775 25.9151C33.2775 26.1324 33.1009 26.309 32.8836 26.309C32.6663 26.309 32.4897 26.1324 32.4897 25.9151ZM21.1756 16.4346C21.3929 16.4346 21.5695 16.6112 21.5695 16.8285C21.5695 17.0458 21.3929 17.2224 21.1756 17.2224C20.9583 17.2224 20.7817 17.0458 20.7817 16.8285C20.7817 16.6112 20.9583 16.4346 21.1756 16.4346ZM20.904 15.4567C20.904 15.2394 21.0805 15.0628 21.2979 15.0628C21.5152 15.0628 21.6917 15.2394 21.6917 15.4567C21.6917 15.674 21.5152 15.8506 21.2979 15.8506C21.0805 15.8506 20.904 15.674 20.904 15.4567ZM22.4659 15.1851C22.4659 14.9677 22.6425 14.7912 22.8598 14.7912C23.0771 14.7912 23.2537 14.9677 23.2537 15.1851C23.2537 15.4024 23.0771 15.579 22.8598 15.579C22.6425 15.579 22.4659 15.4024 22.4659 15.1851ZM9.97019 24C9.97019 20.3735 11.3556 17.073 13.5967 14.5738L19.5186 20.4958V22.1392C19.5186 22.3973 19.7223 22.601 19.9804 22.601H21.6238L23.0228 24H15.9464C15.6883 24 15.4846 24.2037 15.4846 24.4618V32.3939C15.4846 32.652 15.6883 32.8557 15.9464 32.8557H23.8785C24.1366 32.8557 24.3403 32.652 24.3403 32.3939V25.3175L25.7257 26.7029V30.2071L29.8683 32.6384C30.0856 32.7742 30.3709 32.6927 30.4931 32.4754L30.8598 31.837L33.5355 34.5127C31.0364 36.7538 27.7359 38.1392 24.1094 38.1392C16.3131 38.1392 9.97019 31.7963 9.97019 24ZM20.5916 25.9151C20.5916 26.1324 20.415 26.309 20.1977 26.309C19.9804 26.309 19.8038 26.1324 19.8038 25.9151C19.8038 25.6978 19.9804 25.5212 20.1977 25.5212C20.415 25.5348 20.5916 25.6978 20.5916 25.9151ZM19.0024 26.8387C19.0024 27.056 18.8259 27.2326 18.6085 27.2326C18.3912 27.2326 18.2146 27.056 18.2146 26.8387C18.2146 26.6214 18.3912 26.4448 18.6085 26.4448C18.8259 26.4448 19.0024 26.6214 19.0024 26.8387ZM17.5084 26.146C17.5084 26.3633 17.3318 26.5399 17.1145 26.5399C16.8972 26.5399 16.7206 26.3633 16.7206 26.146C16.7206 25.9287 16.8972 25.7521 17.1145 25.7521C17.3318 25.7521 17.5084 25.9287 17.5084 26.146Z" fill="#48321E"/>
</svg>
