<svg width="100" height="101" viewBox="0 0 100 101" fill="none" xmlns="http://www.w3.org/2000/svg">
<g clip-path="url(#clip0_500_3407)">
<path d="M21.4517 97.0328L18.5113 92.891C17.887 92.0113 16.6677 91.8045 15.788 92.4289C14.9085 93.0533 14.7015 94.2725 15.3261 95.1521L18.2665 99.2941C18.447 99.5488 18.6861 99.7565 18.9635 99.8996C19.2409 100.043 19.5487 100.117 19.8609 100.117C20.2519 100.117 20.6466 99.9996 20.9898 99.756C21.8692 99.1316 22.0763 97.9125 21.4517 97.0328ZM43.9852 97.7625L40.7852 82.511C39.2291 75.0946 34.9088 68.6817 28.6206 64.4534L21.7884 59.8593C19.0488 58.0175 15.3663 58.4136 13.0765 60.7486V37.2143C13.0765 34.1252 10.9705 31.5006 7.95485 30.8313C6.00857 30.3989 4.00116 30.8672 2.44628 32.1147C0.891598 33.3622 0 35.2209 0 37.2143V67.4978C0 71.4651 1.21406 75.2723 3.51073 78.5077L6.99372 83.4141C7.17423 83.6688 7.41325 83.8765 7.69068 84.0196C7.96812 84.1628 8.27586 84.2372 8.58805 84.2368C8.97907 84.2368 9.37379 84.1196 9.71695 83.876C10.5964 83.2516 10.8035 82.0325 10.1789 81.1528L6.69587 76.2464C4.87088 73.6755 3.90623 70.6503 3.90623 67.4976V37.2143C3.90623 36.4119 4.26522 35.6637 4.891 35.1614C5.1979 34.9139 5.55672 34.7389 5.9407 34.6494C6.32467 34.56 6.72389 34.5584 7.10857 34.6448C8.32243 34.9141 9.17028 35.9707 9.17028 37.2143V61.2408C9.17028 64.6419 10.4199 67.8823 12.69 70.4034C12.7873 70.52 12.8873 70.6354 12.9929 70.7474C14.29 72.1218 15.815 73.7413 17.2513 75.2678L19.262 77.4079C19.2685 77.4147 19.2755 77.4206 19.2822 77.4272C21.0023 79.2567 22.2708 80.6077 22.2974 80.6358C23.0355 81.4219 24.2718 81.461 25.0581 80.7225C25.8444 79.984 25.8833 78.7481 25.1446 77.9618C25.1091 77.9239 22.8228 75.4893 20.2118 72.7141L15.7335 67.948C15.7222 67.9358 15.7119 67.9231 15.7005 67.911C14.6505 66.6552 14.6636 64.8343 15.7642 63.5917C16.7378 62.4929 18.3909 62.282 19.6091 63.1009L26.4409 67.695C31.8799 71.3522 35.6165 76.8987 36.9622 83.3131L40.1623 98.5648C40.3555 99.4853 41.1674 100.117 42.0719 100.117C42.2047 100.117 42.3397 100.103 42.4748 100.075C43.5305 99.8537 44.2067 98.8181 43.9852 97.7625Z" fill="#B68050"/>
<path d="M14.4697 87.1979L14.4572 87.1803C13.8303 86.3022 12.6107 86.0983 11.7328 86.7248C10.8549 87.3514 10.651 88.5711 11.2773 89.449L11.2898 89.4666C11.4705 89.7202 11.7093 89.9269 11.9862 90.0694C12.2631 90.2119 12.57 90.286 12.8814 90.2856C13.274 90.2856 13.6703 90.1676 14.0142 89.9221C14.892 89.2955 15.0961 88.0758 14.4697 87.1979ZM97.5526 32.1143C95.9979 30.8669 93.9895 30.3993 92.0442 30.8309C89.0286 31.5001 86.9223 34.1248 86.9223 37.2139V60.7482C84.6327 58.4132 80.9499 58.0171 78.2105 59.8589L71.3783 64.4529C65.0898 68.681 60.7697 75.094 59.2137 82.5104L56.0137 97.7621C55.7922 98.8178 56.4684 99.8531 57.524 100.075C57.6592 100.103 57.7943 100.117 57.927 100.117C58.8316 100.117 59.6434 99.4846 59.8365 98.5641L63.0365 83.3124C64.3824 76.8981 68.1187 71.3515 73.5577 67.6944L80.3899 63.1005C81.6077 62.2814 83.2608 62.4923 84.2348 63.5911C85.3341 64.8321 85.3487 66.6501 84.3026 67.906C84.2901 67.9196 84.2782 67.9337 84.2657 67.9474L74.8544 77.9612C74.116 78.7475 74.1548 79.9835 74.9409 80.7219C75.7273 81.4604 76.9632 81.4215 77.7017 80.6352C77.7282 80.6071 85.7091 72.1214 87.0061 70.747C87.1106 70.6355 87.2116 70.5208 87.3091 70.403C89.579 67.8819 90.8288 64.6415 90.8288 61.2404V37.2137C90.8288 35.9702 91.6766 34.9135 92.8907 34.6442C93.6745 34.4704 94.4823 34.6588 95.1082 35.1608C95.4163 35.4068 95.6648 35.7192 95.8353 36.0747C96.0058 36.4301 96.0939 36.8195 96.093 37.2137V67.4972C96.093 70.6499 95.1284 73.6751 93.3034 76.246L78.5474 97.0324C77.923 97.9119 78.1298 99.1312 79.0093 99.7556C79.3389 99.9904 79.7335 100.117 80.1382 100.116C80.4504 100.117 80.7581 100.042 81.0355 99.8992C81.3129 99.756 81.552 99.5484 81.7325 99.2937L96.4885 78.5073C98.7852 75.272 99.9992 71.4647 99.9992 67.4974V37.2137C99.9987 35.2204 99.1073 33.3618 97.5526 32.1143Z" fill="#B68050"/>
<path d="M74.7377 37.5507L71.2629 36.7206V36.0976C73.5213 34.5155 75.0021 31.8958 75.0021 28.9353V24.4179C75.0021 19.5978 71.0808 15.6765 66.2607 15.6765C64.0977 15.6765 62.1172 16.4679 60.5893 17.7742C58.8881 13.6082 54.7948 10.6641 50.0245 10.6641C45.2483 10.6641 41.1507 13.6158 39.4534 17.7898C37.9232 16.4742 35.9355 15.6762 33.7636 15.6762C28.9435 15.6762 25.0222 19.5974 25.0222 24.4175V28.9349C25.0222 31.8954 26.5031 34.5151 28.7615 36.0972V36.7202L25.2867 37.5503C21.1379 38.5415 18.2402 42.2128 18.2402 46.4784V50.126C18.2402 51.2047 19.1148 52.0791 20.1934 52.0791H29.1683C29.1535 52.3172 29.1457 52.5556 29.1449 52.7942V59.8172C29.1449 60.8959 30.0195 61.7703 31.098 61.7703H42.8382C43.9167 61.7703 44.7913 60.8959 44.7913 59.8172C44.7913 58.7385 43.9167 57.8641 42.8382 57.8641H40.8202V53.828C40.8202 52.7492 39.9456 51.8748 38.8671 51.8748C37.7886 51.8748 36.914 52.7492 36.914 53.828V57.8645H33.0513V52.7946C33.0513 49.0276 35.6099 45.7836 39.2728 44.9059L44.6325 43.6215L48.2194 51.7821C48.372 52.1291 48.6222 52.4243 48.9397 52.6315C49.2571 52.8388 49.628 52.9492 50.0071 52.9492H50.0073C50.3864 52.9492 50.7573 52.8389 51.0748 52.6317C51.3923 52.4244 51.6426 52.1293 51.7952 51.7823L55.3784 43.6339L60.7211 44.9102C64.3875 45.7862 66.9482 49.0305 66.9482 52.8002V57.8645H63.0856V53.828C63.0856 52.7492 62.211 51.8748 61.1324 51.8748C60.0539 51.8748 59.1793 52.7492 59.1793 53.828V57.8645H56.9659C55.8873 57.8645 55.0127 58.7389 55.0127 59.8176C55.0127 60.8963 55.8873 61.7707 56.9659 61.7707H68.9016C69.9801 61.7707 70.8547 60.8963 70.8547 59.8176V52.8002C70.8547 52.5582 70.8449 52.3184 70.8308 52.0795H79.8312C80.9097 52.0795 81.7843 51.2051 81.7843 50.1264V46.4788C81.7843 42.2132 78.8867 38.5417 74.7377 37.5507ZM66.2607 19.5824C68.8197 19.5824 70.9205 21.5806 71.0853 24.0986H68.3699C66.0908 24.0984 63.8449 23.5511 61.8213 22.5025C62.5641 20.7861 64.2746 19.5824 66.2607 19.5824ZM61.4256 28.6497C61.428 28.5546 61.4328 28.4599 61.4328 28.3642V26.6247C63.6323 27.5354 65.9894 28.0044 68.3699 28.0048H71.0959V28.9351C71.0959 31.6011 68.9269 33.7702 66.2607 33.7702C63.5945 33.7702 61.4256 31.6011 61.4256 28.9349V28.6497ZM42.5226 22.0722C42.5226 17.9357 45.8878 14.5703 50.0245 14.5703C53.7555 14.5703 56.8588 17.3082 57.4319 20.88L54.1438 18.9482C53.7455 18.7142 53.2771 18.6289 52.8219 18.7076C52.3667 18.7862 51.9541 19.0237 51.6575 19.3779C50.8667 20.3238 49.8777 21.0843 48.7605 21.6057C47.6433 22.1271 46.4252 22.3967 45.1923 22.3953H42.5226V22.0722ZM33.7638 19.5824C35.7499 19.5824 37.4603 20.7863 38.2032 22.5023C36.1796 23.5508 33.9338 24.0982 31.6546 24.0984H28.9392C29.1041 21.5806 31.205 19.5824 33.7638 19.5824ZM28.9287 28.0046H31.6546C34.0378 28.0042 36.3975 27.5342 38.5989 26.6216V28.9347C38.5989 31.6007 36.43 33.7698 33.7638 33.7698C31.0976 33.7698 28.9287 31.6011 28.9287 28.9349V28.0046ZM38.3626 41.1071C34.5201 42.0278 31.5001 44.7069 30.0628 48.1731H22.1465V46.4786C22.1434 45.2923 22.5417 44.1399 23.2766 43.2087C24.0115 42.2776 25.0398 41.6224 26.1943 41.3497L31.1685 40.1614C31.5956 40.0594 31.9758 39.8165 32.2479 39.4718C32.5199 39.1272 32.6679 38.7009 32.6679 38.2618V37.6052C33.0273 37.6503 33.3925 37.6763 33.7638 37.6763C34.1324 37.6763 34.4951 37.6507 34.8517 37.6061V38.1634C34.8359 38.5045 34.9098 38.8438 35.0662 39.1474C35.2225 39.451 35.4558 39.7082 35.7427 39.8934C35.9538 40.0305 36.1895 40.1252 36.4366 40.1723L39.3501 40.8704L38.3626 41.1071ZM43.8106 38.0751C43.3063 37.8526 42.7829 37.6761 42.2468 37.5477L38.7577 36.7116V36.103C39.3869 35.6634 39.956 35.1436 40.4505 34.5565C41.3235 35.9012 42.468 37.0484 43.8106 37.9245V38.0751ZM52.2934 40.9448L50.0079 46.143L47.7171 40.9315V39.5378C48.4762 39.6942 49.2494 39.7728 50.0245 39.7725C50.7865 39.7727 51.5466 39.6965 52.2934 39.5452V40.9448ZM50.0245 35.8661C45.8878 35.8663 42.5226 32.5009 42.5226 28.3642V26.3013H45.1923C48.2895 26.3013 51.2344 25.1496 53.4915 23.0953L57.5192 25.4617V28.6499C57.3684 32.6544 54.0655 35.8661 50.0245 35.8661ZM56.1997 38.0813V37.9491C57.5533 37.0737 58.7076 35.9235 59.5877 34.573C60.0789 35.1533 60.6431 35.6675 61.2662 36.103V36.7116L57.777 37.5477C57.2362 37.6775 56.7082 37.8561 56.1997 38.0813ZM77.8779 48.1731H69.9346C68.4959 44.7069 65.4738 42.0294 61.6289 41.1108L60.6483 40.8766L63.5774 40.1747C63.8282 40.1279 64.0674 40.0323 64.2815 39.8934C64.5621 39.7119 64.7914 39.4614 64.9475 39.1658C65.1035 38.8702 65.181 38.5395 65.1725 38.2054V37.6061C65.5293 37.6507 65.8918 37.6763 66.2604 37.6763C66.6268 37.6754 66.9928 37.6517 67.3562 37.6052V38.2618C67.3563 38.7009 67.5042 39.1272 67.7763 39.4718C68.0483 39.8165 68.4286 40.0594 68.8557 40.1614L73.8299 41.3497C74.9843 41.6224 76.0126 42.2776 76.7476 43.2088C77.4825 44.1399 77.8809 45.2923 77.8779 46.4786V48.1731Z" fill="#B68050"/>
<path d="M51.3807 58.4353C51.0133 58.0712 50.5173 57.8664 50.0001 57.865C49.4843 57.865 48.9825 58.072 48.6192 58.4353C48.2534 58.8027 48.0477 59.2997 48.047 59.8181C48.047 60.3318 48.254 60.8337 48.6192 61.199C48.9825 61.5623 49.4844 61.7712 50.0001 61.7712C50.5137 61.7712 51.0157 61.5623 51.3807 61.199C51.7454 60.8317 51.951 60.3357 51.9532 59.8181C51.9532 59.3025 51.7442 58.8005 51.3807 58.4353ZM49.9987 0.117188C48.9202 0.117188 48.0456 0.991598 48.0456 2.0703V4.99275C48.0456 6.07146 48.9202 6.94587 49.9987 6.94587C51.0772 6.94587 51.9518 6.07146 51.9518 4.99275V2.0703C51.9518 0.991598 51.0774 0.117188 49.9987 0.117188ZM42.8042 6.48806L40.7554 4.44119C39.9923 3.6787 38.7558 3.67928 37.9933 4.44237C37.2308 5.20545 37.2316 6.44216 37.9947 7.20446L40.0437 9.25133C40.2248 9.43279 40.4399 9.57669 40.6768 9.67476C40.9137 9.77283 41.1676 9.82315 41.4239 9.82281C41.6806 9.82313 41.9348 9.7727 42.1719 9.67442C42.409 9.57614 42.6244 9.43196 42.8056 9.25016C43.5677 8.48708 43.5673 7.25036 42.8042 6.48806ZM61.9574 4.49119C61.1944 3.72889 59.9575 3.72928 59.1953 4.49256L57.1623 6.52751C56.4 7.2906 56.4006 8.52731 57.1637 9.28961C57.3449 9.47108 57.56 9.61498 57.7969 9.71305C58.0338 9.81112 58.2878 9.86143 58.5442 9.86109C58.8009 9.86143 59.0551 9.81099 59.2922 9.71267C59.5293 9.61436 59.7447 9.47012 59.9258 9.28825L61.9588 7.25329C62.7211 6.49021 62.7205 5.2535 61.9574 4.49119Z" fill="#B68050"/>
</g>
<defs>
<clipPath id="clip0_500_3407">
<rect width="100" height="100" fill="white" transform="translate(0 0.117188)"/>
</clipPath>
</defs>
</svg>
