<svg width="100" height="101" viewBox="0 0 100 101" fill="none" xmlns="http://www.w3.org/2000/svg">
<path d="M100 48.5555C100 45.1023 97.2031 42.3055 93.75 42.3055H90.5938C90.5 40.0711 89.6719 37.6805 88.0938 35.1648C85.7031 31.368 82.1875 28.1336 78.4531 26.2898C76.5781 25.368 74.7656 24.8523 73.0781 24.7273C72.4062 22.6805 71.25 21.0398 69.6719 19.9617C68.125 18.9305 66.2656 18.4617 64.2031 18.5555C64.5156 16.4305 64.5156 14.368 64.1562 12.5242C63.6094 9.72733 62.2656 7.53983 60.2969 6.22733C54.7031 2.4617 46.125 6.53983 40.875 12.9305C39.2031 11.368 37.3438 10.0555 35.4219 9.10233C31.2812 7.05545 27.4062 6.94608 24.5 8.75858C20.25 11.4305 18.9219 18.0398 21.1094 25.1492C17.7031 26.9305 14.4531 29.8055 12.1562 33.243C9.98438 36.4773 9.10938 39.5086 9.5 42.3055H6.25C2.79688 42.3055 0 45.1023 0 48.5555C0 51.6023 2.1875 54.1336 5.07812 54.6805L10.7188 71.5867C13.3906 79.6023 20.0938 85.4148 28.125 87.1023V87.618C28.125 91.9305 31.625 95.4305 35.9375 95.4305H64.0625C68.375 95.4305 71.875 91.9305 71.875 87.618V87.1023C79.9062 85.4148 86.6094 79.618 89.2812 71.5867L94.9219 54.6805C96.3489 54.4102 97.6369 53.6505 98.5639 52.5324C99.4909 51.4143 99.9988 50.0079 100 48.5555ZM85.4531 36.8211C86.7188 38.8211 87.3906 40.6492 87.4844 42.3055H84.7188C84.1719 40.6336 83.2344 39.1336 82.8125 38.4617C82.3281 37.7273 81.8594 37.0867 81.3906 36.5242C80.8438 35.868 79.8594 35.7742 79.1875 36.3211C78.5312 36.868 78.4375 37.8523 78.9844 38.5242C79.375 38.993 79.7812 39.5398 80.1719 40.1492C80.4219 40.5555 80.9375 41.368 81.3594 42.3055H74.2031C72.5312 39.0867 71.9688 35.6648 72.0156 33.618C72.0204 33.4126 71.9845 33.2083 71.91 33.0169C71.8355 32.8254 71.7239 32.6506 71.5816 32.5025C71.4393 32.3544 71.2691 32.2359 71.0807 32.1538C70.8924 32.0717 70.6898 32.0277 70.4844 32.0242C69.5938 31.9305 68.9062 32.6805 68.8906 33.5555C68.8438 35.6805 69.3438 39.0086 70.75 42.3211H67.4062C65.3125 36.3836 66.0312 30.6023 69.1875 28.618C71.1094 27.4148 73.9688 27.5867 77.0625 29.118C80.2969 30.7117 83.3438 33.5242 85.4375 36.8523L85.4531 36.8211ZM67.9219 22.5555C68.8594 23.1805 69.4375 24.0711 69.8438 24.9617C69.0312 25.1805 68.25 25.5086 67.5469 25.9461C62.8125 28.9305 62.2813 36.0555 64.1562 42.3055H57.2344C57.6094 40.9148 57.8281 39.368 57.8281 37.618C57.8281 35.868 57.6094 34.0242 57.2188 32.243C58.2656 31.3211 59.2812 30.1492 60.2188 28.7586C61.6494 26.6105 62.7404 24.2547 63.4531 21.7742C64.8281 21.5711 66.5156 21.6023 67.9219 22.5555ZM51.0312 42.3055C51.4844 40.7898 51.5625 39.1023 51.5625 37.618C51.5625 36.8367 51.5156 36.0242 51.4219 35.2117C51.3125 34.3523 50.5469 33.743 49.6875 33.8367C48.8281 33.9461 48.2188 34.7117 48.3125 35.5711C48.3906 36.2742 48.4375 36.9617 48.4375 37.618C48.4375 39.8523 48.1719 41.4148 47.6719 42.3055H35.4219C36.8438 38.6805 37.4688 34.6648 36.8906 31.2273C38.4375 26.1023 41.5625 22.4461 44.7188 22.0398C44.9219 22.0242 45.125 21.993 45.3281 21.993C50.1406 21.993 54.7031 29.5867 54.7031 37.618C54.7031 39.4773 54.4531 41.0242 53.9688 42.3055H51.0469H51.0312ZM58.5469 8.82108C60.1562 9.8992 60.8125 11.7586 61.0781 13.1336C61.8906 17.243 60.5312 22.6961 57.625 27.0242C57.1719 27.7117 56.7031 28.3055 56.2188 28.8523C54.5156 24.2586 51.5625 20.4773 47.8125 19.2742C49.9531 16.4617 52.9375 14.3367 55.1094 13.4461C55.9062 13.118 56.2813 12.1961 55.9531 11.3992C55.625 10.6023 54.7031 10.2273 53.9062 10.5555C51.4062 11.5867 47.6406 14.118 44.9688 17.8523C44.375 16.9305 43.7344 16.0555 43.0312 15.2117C47.6562 9.35233 54.8125 6.32108 58.5312 8.82108H58.5469ZM26.1719 11.3992C28.0938 10.1961 30.9531 10.368 34.0469 11.8992C37.2188 13.4617 40.2188 16.2117 42.3125 19.4617C41.375 19.8367 40.4688 20.368 39.6094 21.0555C39.2188 20.4461 38.8125 19.868 38.3594 19.3367C37.8125 18.6805 36.8281 18.5867 36.1562 19.1336C35.5 19.6805 35.4062 20.6648 35.9531 21.3367C36.3594 21.8367 36.7656 22.3836 37.125 22.9617L37.2188 23.1023C37.2188 23.1023 37.3281 23.2742 37.375 23.3523C36.5781 24.3836 35.8438 25.5555 35.2188 26.8836C34.625 26.0242 33.8906 25.2586 32.9844 24.6492C32.2188 24.1336 31.375 23.7586 30.4531 23.5242C29.3438 20.8055 28.9688 18.1023 29 16.4148C29.0156 15.5555 28.3281 14.8367 27.4688 14.8211C26.6406 14.8211 25.8906 15.493 25.875 16.3523C25.8281 18.4773 26.25 20.9461 27.0312 23.2742C26.5937 23.3211 26.1406 23.368 25.6875 23.4617C25.1406 23.5711 24.5781 23.7273 24.0312 23.8992C22.4219 18.368 23.25 13.2586 26.2031 11.3992H26.1719ZM14.75 34.9773C17.6406 30.6492 22.1719 27.3211 26.2812 26.5242C27.6562 26.2586 29.625 26.1648 31.25 27.243C34.5938 29.4773 34.9062 36.1023 32.0469 42.3055H28.5312C28.6562 42.0711 28.8281 41.8367 28.9375 41.6023C29.0302 41.4189 29.0855 41.219 29.1003 41.014C29.1151 40.8091 29.089 40.6033 29.0236 40.4085C28.9582 40.2137 28.8548 40.0338 28.7193 39.8794C28.5838 39.7249 28.419 39.5988 28.2344 39.5086C28.051 39.4159 27.851 39.3605 27.6461 39.3458C27.4411 39.331 27.2353 39.3571 27.0405 39.4225C26.8457 39.4879 26.6659 39.5913 26.5114 39.7268C26.3569 39.8623 26.2309 40.0271 26.1406 40.2117C25.8438 40.8055 25.5 41.3836 25.1094 41.9773C25.0469 42.0711 24.9688 42.1961 24.8906 42.3055H12.6719C12.2031 40.1648 12.8906 37.7742 14.75 34.993V34.9773ZM68.75 87.618C68.75 90.1961 66.6406 92.3055 64.0625 92.3055H35.9375C33.3594 92.3055 31.25 90.1961 31.25 87.618H68.75ZM86.3125 70.6023C84.9692 74.649 82.3846 78.1694 78.9259 80.6631C75.4673 83.1568 71.3107 84.4969 67.0469 84.493H32.9531C24.2031 84.493 16.4531 78.9148 13.6875 70.6023L8.42188 54.8055H91.5781L86.3125 70.6023ZM93.75 51.6805H6.25C4.53125 51.6805 3.125 50.2742 3.125 48.5555C3.125 46.8367 4.53125 45.4305 6.25 45.4305H93.75C95.4688 45.4305 96.875 46.8367 96.875 48.5555C96.875 50.2742 95.4688 51.6805 93.75 51.6805Z" fill="#B68050"/>
<path d="M44.6092 25.5706C43.8905 25.0863 42.9217 25.2894 42.4373 26.0081C40.8748 28.3519 39.0623 32.805 39.0623 37.6175C39.0623 38.4769 39.7655 39.18 40.6248 39.18C41.4842 39.18 42.1873 38.4769 42.1873 37.6175C42.1873 33.7581 43.6248 29.8675 45.0467 27.7269C45.5311 27.0081 45.328 26.0394 44.6092 25.555V25.5706ZM27.7967 31.8519C28.5936 31.5238 28.9686 30.6019 28.6405 29.805C28.3123 29.0081 27.3905 28.6331 26.5936 28.9613C23.9998 30.0394 19.9998 32.7269 17.3123 36.7269C17.1528 36.962 17.0605 37.2361 17.0452 37.5197C17.03 37.8034 17.0924 38.0859 17.2259 38.3367C17.3593 38.5874 17.5586 38.7971 17.8024 38.9429C18.0462 39.0888 18.3251 39.1654 18.6092 39.1644C19.1092 39.1644 19.6092 38.9144 19.9061 38.4769C22.0623 35.2738 25.4061 32.8519 27.7811 31.8519H27.7967Z" fill="#B68050"/>
</svg>
