<svg width="48" height="49" viewBox="0 0 48 49" fill="none" xmlns="http://www.w3.org/2000/svg">
<path d="M24 48.5C37.2548 48.5 48 37.7548 48 24.5C48 11.2452 37.2548 0.500031 24 0.500031C10.7451 0.500031 0 11.2452 0 24.5C0 37.7548 10.7451 48.5 24 48.5Z" fill="#D89551"/>
<path d="M28.2746 9.64398C23.4125 7.48831 14.7269 7.74006 13.8929 16.0795C20.7376 11.4692 31.1855 13.6092 30.9338 13.8609C21.9492 12.728 16.8039 15.5446 14.4437 17.417C20.8635 20.8315 23.6328 19.2895 27.6294 18.1408C31.3429 16.7404 35.7014 16.2526 36.1892 16.2526C35.5755 15.7334 33.8919 12.0199 28.2746 9.64398Z" fill="#2A0B0D"/>
<path d="M10.4626 24.9212C13.9715 33.2449 18.9122 36.2975 21.7287 37.4147C21.5399 30.2238 18.7706 28.5402 15.781 25.6922C12.6183 23.2375 10.0378 19.7287 9.81749 19.2409C9.75455 20.0119 7.42578 23.3005 8.13385 29.3427C8.66883 34.6925 13.2791 42.1508 20.942 38.579C13.5309 34.96 10.1479 24.7953 10.4626 24.9212Z" fill="#2A0B0D"/>
<path d="M36.8977 21.2091C37.4956 29.4857 30.3677 37.5104 30.3048 37.1328C35.7962 29.8476 35.9221 23.9942 35.4658 21.0203C29.3449 24.8439 29.2348 28.0695 28.275 32.0819C27.7085 36.0786 25.9619 40.0752 25.6787 40.5001C26.3868 40.2168 30.4464 40.563 35.2927 36.8496C39.6198 33.7341 43.7423 26.0869 36.8977 21.2091Z" fill="#2A0B0D"/>
</svg>
