<svg width="48" height="49" viewBox="0 0 48 49" fill="none" xmlns="http://www.w3.org/2000/svg">
<path d="M24 48.5001C37.2548 48.5001 48 37.755 48 24.5001C48 11.2453 37.2548 0.500122 24 0.500122C10.7452 0.500122 0 11.2453 0 24.5001C0 37.755 10.7452 48.5001 24 48.5001Z" fill="#D89551"/>
<path d="M10.943 14.1817H11.1535C11.7851 13.7607 12.4167 13.7607 13.2588 13.7607H21.0483C21.4693 13.7607 21.8904 13.3396 21.8904 12.9186V6.81332C21.8904 6.60279 21.6798 6.18176 21.2587 6.18176C20.8377 6.18176 20.6272 6.39226 20.6272 6.81332V12.9186H12.8377C11.9956 12.9186 11.1535 13.1291 10.3114 13.5502C10.1009 13.7607 9.89035 13.9712 10.1009 14.1817C10.7325 14.1817 10.7324 14.1817 10.943 14.1817Z" fill="#2A0B0D"/>
<path d="M17.4732 31.2359H22.7364C22.9469 31.2359 23.368 31.0254 23.368 30.6043C23.368 30.1833 23.1575 29.9728 22.7364 29.9728H17.4732C16.6311 29.9728 15.7891 30.6043 15.7891 31.657C15.7891 32.4991 16.4206 33.3412 17.4732 33.3412H19.5785C21.0522 33.3412 22.3153 34.6043 22.3153 36.078V42.1833C22.3153 42.3938 22.5259 42.8149 22.9469 42.8149C23.368 42.8149 23.5785 42.6043 23.5785 42.1833V36.078C23.5785 33.9728 21.8943 32.2886 19.7891 32.2886H17.6838C17.4733 32.2886 17.0522 32.078 17.0522 31.657C17.0522 31.2359 17.0522 31.2359 17.4732 31.2359Z" fill="#2A0B0D"/>
<path d="M15.7891 17.9712C15.7891 18.1817 15.9996 18.6028 16.4206 18.6028H26.9469C29.2627 18.6028 31.1575 19.866 32.2101 21.9712C32.2101 22.1818 32.4207 22.1817 32.6312 22.1817H32.8417C33.0522 21.9712 33.2627 21.7607 33.0522 21.5502C31.9996 19.2344 29.4732 17.5502 26.7364 17.5502H25.8943C26.7364 16.7081 27.368 15.6554 27.368 14.3923V6.81332C27.368 6.60279 27.1575 6.18176 26.7364 6.18176C26.3153 6.18176 26.1048 6.39226 26.1048 6.81332V14.3923C26.1048 16.0765 24.6312 17.5502 22.9469 17.5502H16.4206C16.2101 17.3397 15.7891 17.7607 15.7891 17.9712Z" fill="#2A0B0D"/>
<path d="M19.1547 34.6033H14.1021C13.0495 34.6033 12.2074 34.3927 11.3653 33.7612C11.1548 33.5506 10.7337 33.7612 10.7337 33.9717C10.5232 34.1822 10.7337 34.6033 10.9442 34.6033C11.9969 35.2349 13.0495 35.4454 14.3127 35.4454H19.3653C19.5758 35.4454 19.7864 35.6559 19.7864 35.8664V41.9717C19.7864 42.1823 19.9969 42.6033 20.4179 42.6033C20.839 42.6033 21.0495 42.3928 21.0495 41.9717V35.8664C20.6285 35.2348 19.9968 34.6033 19.1547 34.6033Z" fill="#2A0B0D"/>
<path d="M14.1025 23.8665H24.4183C24.6288 23.8665 25.0499 23.6559 25.0499 23.2349C25.0499 22.8138 24.8393 22.6033 24.4183 22.6033H13.0499C10.5236 22.6033 8.6288 20.498 8.6288 18.1822C8.6288 17.1296 8.83938 16.2875 9.47096 15.4454C9.68149 15.2349 9.68149 14.8139 9.47096 14.6033C9.26043 14.3928 8.83933 14.3928 8.6288 14.6033C7.99722 15.656 7.57617 16.7085 7.57617 17.9717C7.57617 20.2875 9.04988 22.3928 11.1551 23.2349C9.04988 24.2875 7.57617 26.3928 7.57617 28.9191C7.57617 30.3928 7.99724 31.6559 8.83934 32.9191C9.04987 33.1296 9.0499 33.1296 9.26042 33.1296C9.47095 33.1296 9.47091 33.1296 9.68144 32.9191C9.89196 32.7086 9.89196 32.498 9.68144 32.077C9.04986 31.0244 8.6288 29.9717 8.6288 28.7086C8.83933 26.1822 11.1551 23.8665 14.1025 23.8665Z" fill="#2A0B0D"/>
<path d="M32.207 23.2325C27.786 23.2325 24.207 26.8115 24.207 31.2326C24.207 35.6536 27.786 39.2326 32.207 39.2326C33.6807 39.2326 35.1544 38.8115 36.4175 37.9694C36.6281 37.7589 36.8386 37.5484 36.6281 37.1273C36.4176 36.9168 36.207 36.7062 35.786 36.9168C34.7334 37.5483 33.4702 37.9694 31.9965 37.9694C28.207 37.9694 25.0491 34.8115 25.0491 31.022C25.0491 27.2326 28.207 24.0747 31.9965 24.0747C35.7859 24.0747 38.9439 27.2326 38.9439 31.022C38.9439 32.7063 38.3123 34.18 37.2596 35.4431C37.0491 35.6536 37.0491 36.0747 37.2596 36.2852C37.4702 36.4957 37.8912 36.4957 38.1017 36.2852C39.3649 34.8115 39.9965 32.9168 39.9965 31.022C40.207 26.8115 36.6281 23.2325 32.207 23.2325Z" fill="#2A0B0D"/>
<path d="M34.7329 27.6585C34.7329 26.6059 33.8907 25.7638 32.8381 25.7638C31.7855 25.7638 30.9434 26.6059 30.9434 27.6585C30.9434 28.7112 31.7855 29.5532 32.8381 29.5532C33.8907 29.5532 34.7329 28.7112 34.7329 27.6585ZM32.8381 28.5006C32.417 28.5006 31.996 28.0796 31.996 27.6585C31.996 27.2375 32.417 26.8164 32.8381 26.8164C33.2591 26.8164 33.6802 27.2375 33.6802 27.6585C33.6802 28.2901 33.2591 28.5006 32.8381 28.5006Z" fill="#2A0B0D"/>
<path d="M30.1045 35.0254C31.5782 35.0254 32.6308 33.9728 32.6308 32.4991C32.6308 31.0254 31.5782 29.9728 30.1045 29.9728C28.6308 29.9728 27.5781 31.0254 27.5781 32.4991C27.5781 33.9728 28.6308 35.0254 30.1045 35.0254ZM30.1045 30.8149C30.9466 30.8149 31.5782 31.4465 31.5782 32.2886C31.5782 33.1307 30.9466 33.7622 30.1045 33.7622C29.2624 33.7622 28.6308 33.1307 28.6308 32.2886C28.6308 31.657 29.2624 30.8149 30.1045 30.8149Z" fill="#2A0B0D"/>
<path d="M34.7379 30.8121C34.7379 31.0226 34.9484 31.2332 35.1589 31.2332C35.1589 31.2332 35.1589 31.2332 35.3694 31.2332C35.58 31.2332 35.7905 30.8121 35.7905 30.6016L35.58 29.97C35.58 29.7595 35.1589 29.549 34.9484 29.549C34.7378 29.549 34.5273 29.97 34.5273 30.1806L34.7379 30.8121Z" fill="#2A0B0D"/>
<path d="M35.1589 33.7598H36.001C36.2115 33.7598 36.4221 33.5493 36.4221 33.1282C36.4221 32.9177 36.2116 32.7072 35.7905 32.7072H34.9484C34.7378 32.7072 34.5273 32.9177 34.5273 33.3388C34.7379 33.5493 34.9484 33.7598 35.1589 33.7598Z" fill="#2A0B0D"/>
<path d="M32.8367 36.288C33.0472 36.288 33.0473 36.288 33.2578 36.0774L33.8894 35.6564C34.0999 35.4459 34.0999 35.0248 33.8894 34.8143C33.6788 34.6037 33.2578 34.6037 33.0473 34.8143L32.4157 35.2353C32.2052 35.4459 32.2052 35.8669 32.4157 36.0774C32.6262 36.288 32.6262 36.288 32.8367 36.288Z" fill="#2A0B0D"/>
<path d="M28.632 28.2859C29.053 28.2859 29.2636 28.0754 29.2636 27.8649L29.4741 27.2333C29.4741 27.0228 29.4741 26.6017 29.053 26.6017C28.8425 26.6017 28.4215 26.6017 28.4215 27.0228L28.2109 27.6543C28.2109 27.8648 28.4214 28.2859 28.632 28.2859Z" fill="#2A0B0D"/>
</svg>
