<svg width="48" height="49" viewBox="0 0 48 49" fill="none" xmlns="http://www.w3.org/2000/svg">
<path d="M24 48.4999C37.2548 48.4999 48 37.7548 48 24.4999C48 11.2451 37.2548 0.499969 24 0.499969C10.7451 0.499969 0 11.2451 0 24.4999C0 37.7548 10.7451 48.4999 24 48.4999Z" fill="#D89551"/>
<path d="M35.3141 13.1859C32.2988 10.1706 28.2784 8.49997 24 8.49997C19.7216 8.49997 15.7148 10.157 12.6859 13.1859C9.67064 16.2012 8 20.2215 8 24.5C8 28.7784 9.65706 32.7852 12.6859 35.8141C15.7012 38.8293 19.7216 40.5 24 40.5C28.2784 40.5 32.2853 38.8429 35.3141 35.8141C38.3294 32.7988 40 28.7784 40 24.5C40 20.2215 38.343 16.2012 35.3141 13.1859ZM38.1664 24.5C38.1664 28.0178 36.8625 31.2368 34.7436 33.7088L31.742 30.7071L34.4313 26.1434C34.5671 25.9261 34.4856 25.6409 34.2682 25.5186L27.0425 21.2674L25.6299 23.6714C25.6435 23.7122 25.6435 23.7665 25.6435 23.8209V24.6086L24.1358 23.101H24.3532L26.1868 19.977C26.2411 19.882 26.309 19.8005 26.3905 19.7461C26.6214 19.5832 26.9066 19.5832 27.1375 19.719L28.2649 20.3845V14.7071C28.2649 14.449 28.0611 14.2453 27.8031 14.2453H19.871C19.6129 14.2453 19.4092 14.449 19.4092 14.7071V18.3879L14.8048 13.7835C17.2768 11.6511 20.4958 10.3607 24.0136 10.3607C31.8099 10.3472 38.1664 16.6901 38.1664 24.5ZM31.4024 26.4151C31.1851 26.4151 31.0085 26.2385 31.0085 26.0212C31.0085 25.8039 31.1851 25.6273 31.4024 25.6273C31.6197 25.6273 31.7963 25.8039 31.7963 26.0212C31.7827 26.2385 31.6061 26.4151 31.4024 26.4151ZM31.9864 27.23C32.2037 27.23 32.3803 27.4066 32.3803 27.6239C32.3803 27.8412 32.2037 28.0178 31.9864 28.0178C31.7691 28.0178 31.5926 27.8412 31.5926 27.6239C31.6061 27.4066 31.7827 27.23 31.9864 27.23ZM32.3803 26.4151C32.3803 26.1978 32.5569 26.0212 32.7742 26.0212C32.9915 26.0212 33.1681 26.1978 33.1681 26.4151C33.1681 26.6324 32.9915 26.809 32.7742 26.809C32.5569 26.809 32.3803 26.6324 32.3803 26.4151ZM21.0662 16.9346C21.2836 16.9346 21.4601 17.1112 21.4601 17.3285C21.4601 17.5458 21.2836 17.7224 21.0662 17.7224C20.8489 17.7224 20.6723 17.5458 20.6723 17.3285C20.6723 17.1112 20.8489 16.9346 21.0662 16.9346ZM20.7946 15.9567C20.7946 15.7394 20.9712 15.5628 21.1885 15.5628C21.4058 15.5628 21.5823 15.7394 21.5823 15.9567C21.5823 16.174 21.4058 16.3506 21.1885 16.3506C20.9712 16.3506 20.7946 16.174 20.7946 15.9567ZM22.3565 15.685C22.3565 15.4677 22.5331 15.2911 22.7504 15.2911C22.9678 15.2911 23.1443 15.4677 23.1443 15.685C23.1443 15.9023 22.9678 16.0789 22.7504 16.0789C22.5331 16.0789 22.3565 15.9023 22.3565 15.685ZM9.86082 24.5C9.86082 20.8735 11.2462 17.573 13.4873 15.0738L19.4092 20.9957V22.6392C19.4092 22.8973 19.6129 23.101 19.871 23.101H21.5144L22.9134 24.5H15.837C15.579 24.5 15.3752 24.7037 15.3752 24.9618V32.8939C15.3752 33.1519 15.579 33.3557 15.837 33.3557H23.7691C24.0272 33.3557 24.2309 33.1519 24.2309 32.8939V25.8175L25.6163 27.2029V30.7071L29.7589 33.1383C29.9763 33.2742 30.2615 33.1927 30.3837 32.9754L30.7504 32.337L33.4261 35.0127C30.927 37.2538 27.6265 38.6392 24 38.6392C16.2037 38.6392 9.86082 32.2962 9.86082 24.5ZM20.4822 26.4151C20.4822 26.6324 20.3056 26.809 20.0883 26.809C19.871 26.809 19.6944 26.6324 19.6944 26.4151C19.6944 26.1978 19.871 26.0212 20.0883 26.0212C20.3056 26.0348 20.4822 26.1978 20.4822 26.4151ZM18.8931 27.3387C18.8931 27.556 18.7165 27.7326 18.4992 27.7326C18.2818 27.7326 18.1053 27.556 18.1053 27.3387C18.1053 27.1214 18.2818 26.9448 18.4992 26.9448C18.7165 26.9448 18.8931 27.1214 18.8931 27.3387ZM17.399 26.646C17.399 26.8633 17.2224 27.0399 17.0051 27.0399C16.7878 27.0399 16.6112 26.8633 16.6112 26.646C16.6112 26.4287 16.7878 26.2521 17.0051 26.2521C17.2224 26.2521 17.399 26.4287 17.399 26.646Z" fill="#48321E"/>
</svg>
