<svg width="48" height="49" viewBox="0 0 48 49" fill="none" xmlns="http://www.w3.org/2000/svg">
<path d="M24 48.5001C37.2548 48.5001 48 37.7549 48 24.5001C48 11.2453 37.2548 0.500122 24 0.500122C10.7451 0.500122 0 11.2453 0 24.5001C0 37.7549 10.7451 48.5001 24 48.5001Z" fill="#D89551"/>
<path d="M38.5281 12.7093C37.2649 11.4462 35.5807 10.6041 33.8965 10.3935C32.2123 10.183 30.3175 10.3936 28.8438 11.0251C28.4228 11.2357 28.4228 11.6567 28.4228 11.8672C28.6333 12.2883 29.0543 12.2883 29.2649 12.2883C32.0017 11.0252 35.3702 11.6567 37.4754 13.762C38.9491 15.2356 39.7912 16.9199 39.7912 19.0251C39.7912 20.9199 39.1596 22.8146 37.6859 24.2883L32.8438 29.3409L22.107 19.0251L26.9491 13.9725C27.1597 13.762 27.1597 13.3409 26.9491 12.9199C26.7386 12.4988 26.3175 12.7093 25.8965 12.9199L15.1596 23.8673C13.686 25.3409 12.8438 27.4462 12.6333 29.5514C10.9491 28.7093 9.05435 28.4988 7.15962 28.9199C6.94909 28.9199 6.7386 29.1304 6.7386 29.3409C6.10702 31.8672 6.94913 34.8146 8.84386 36.4988C10.3175 37.9725 12.2123 38.6041 14.107 38.6041C14.7386 38.6041 15.3702 38.6041 16.0017 38.3935C16.6333 38.6041 17.2649 38.6041 17.8965 38.6041C18.528 38.6041 18.9491 38.6041 19.5807 38.3935C20.2123 38.6041 20.8439 38.6041 21.4754 38.6041C23.7912 38.6041 26.107 37.5514 27.5807 35.8672L38.3175 24.9199C42.107 21.762 42.107 16.0778 38.5281 12.7093ZM14.3176 37.5515C12.6333 37.5515 11.1597 36.9198 9.8965 35.8672C8.42281 34.3935 7.7912 32.2883 8.21225 30.3935C10.3175 29.9725 12.4228 30.6041 13.8965 32.0778C15.1596 33.3409 15.7912 35.0251 15.7912 36.7093L13.2649 34.183C13.0544 33.9725 12.6333 33.9725 12.2123 34.183C11.7912 34.3936 12.0018 34.8146 12.2123 35.2357L14.7386 37.7619C14.7386 37.5514 14.5281 37.5515 14.3176 37.5515ZM18.107 37.5515L20.6333 35.0251C20.8439 34.8146 20.8439 34.3935 20.6333 33.9725C20.4228 33.5514 20.0018 33.762 19.5807 33.9725L17.0544 36.4988C16.8438 34.8146 17.4754 32.9198 18.7386 31.6567C20.2122 30.183 22.3175 29.5515 24.2122 29.9725C24.6333 32.0778 24.0017 34.183 22.5281 35.6567C21.4754 36.9198 19.7912 37.5515 18.107 37.5515ZM27.1596 35.2357C25.8964 36.4988 24.4228 37.1304 22.7386 37.3409C23.1597 37.1304 23.3702 36.9199 23.5807 36.4988C25.4754 34.6041 26.107 31.8673 25.4754 29.1304C25.4754 28.9199 25.2649 28.7093 25.0543 28.7093C22.528 28.0778 19.5807 28.9199 17.8965 30.8146C17.2649 31.4462 16.8439 32.2883 16.4228 33.1304C16.0018 32.2883 15.5807 31.6567 14.9491 31.0251C14.7386 30.8146 14.7386 30.8146 14.528 30.6041C14.3175 28.4988 15.1596 26.3936 16.6333 24.9199L21.4754 19.8672L32.2123 30.183L27.1596 35.2357Z" fill="#2A0B0D"/>
</svg>
