<svg width="48" height="49" viewBox="0 0 48 49" fill="none" xmlns="http://www.w3.org/2000/svg">
<path d="M24 48.5001C37.2548 48.5001 48 37.755 48 24.5001C48 11.2453 37.2548 0.500122 24 0.500122C10.7452 0.500122 0 11.2453 0 24.5001C0 37.755 10.7452 48.5001 24 48.5001Z" fill="#D89551"/>
<path d="M36.4202 31.0277C35.3675 31.0277 34.5254 30.6066 33.8938 29.7645C33.4728 29.1329 33.0517 28.9224 32.2096 28.9224C31.3675 28.9224 30.9465 29.3435 30.5255 29.7645C29.4728 31.2382 27.5781 31.4487 26.3149 30.3961C26.1044 30.1856 25.6833 29.9751 25.6833 29.7645C25.2623 29.1329 24.8412 28.9224 23.9991 28.9224C23.157 28.9224 22.7359 29.3435 22.3149 29.7645C21.6833 30.6066 20.8412 31.0277 19.7886 31.0277C18.736 31.0277 17.8938 30.6066 17.2623 29.7645C16.8412 29.1329 16.4202 28.9224 15.5781 28.9224C14.736 28.9224 14.3149 29.3435 13.8938 29.7645C13.2622 30.6066 12.4202 31.0277 11.3675 31.0277C10.3149 31.0277 9.47277 30.6066 8.84119 29.7645C8.42014 29.1329 7.99911 28.9224 7.15701 28.9224C6.94648 28.9224 6.52539 28.7119 6.52539 28.2908C6.52539 28.0803 6.73596 27.6593 7.15701 27.6593C8.20964 27.6593 9.05171 28.0803 9.68329 28.9224C10.1043 29.554 10.5254 29.7645 11.3675 29.7645C12.2096 29.7645 12.6307 29.3435 13.0517 28.9224C13.6833 28.0803 14.5254 27.6593 15.5781 27.6593C16.6307 27.6593 17.4728 28.0803 18.1043 28.9224C18.5254 29.554 18.9465 29.7645 19.7886 29.7645C20.6307 29.7645 21.0517 29.3435 21.4728 28.9224C22.5254 27.4487 24.4201 27.2382 25.6833 28.2908C25.8938 28.5013 26.3149 28.7119 26.3149 28.9224C26.736 29.554 27.157 29.7645 27.9991 29.7645C28.8412 29.7645 29.2622 29.3435 29.6833 28.9224C30.7359 27.4487 32.6307 27.2382 33.8938 28.2908C34.1044 28.5013 34.5254 28.7119 34.5254 28.9224C34.9465 29.554 35.3675 29.7645 36.2096 29.7645C37.0517 29.7645 37.4728 29.3435 37.8939 28.9224C38.5255 28.0803 39.3675 27.6593 40.4202 27.6593C40.6307 27.6593 41.0518 27.8698 41.0518 28.2908C41.0518 28.5013 40.8412 28.9224 40.4202 28.9224C39.5781 28.9224 39.157 29.3435 38.736 29.7645C38.5254 30.3961 37.4728 31.0277 36.4202 31.0277Z" fill="#2A0B0D"/>
<path d="M40.6295 34.3922H39.5769C39.3663 34.3922 38.9453 34.1816 38.9453 33.7606C38.9453 33.5501 39.1558 33.129 39.5769 33.129H40.6295C40.84 33.129 41.2611 33.3395 41.2611 33.7606C41.2611 34.1816 41.0506 34.3922 40.6295 34.3922Z" fill="#2A0B0D"/>
<path d="M35.5749 34.3922H34.5222C34.3117 34.3922 33.8906 34.1816 33.8906 33.7606C33.8906 33.5501 34.1012 33.129 34.5222 33.129H35.5749C35.7854 33.129 36.2064 33.3395 36.2064 33.7606C36.2064 34.1816 35.9959 34.3922 35.5749 34.3922Z" fill="#2A0B0D"/>
<path d="M30.1022 34.3922H29.0495C28.839 34.3922 28.418 34.1816 28.418 33.7606C28.418 33.5501 28.6285 33.129 29.0495 33.129H30.1022C30.3127 33.129 30.7337 33.3395 30.7337 33.7606C30.5232 34.1816 30.3127 34.3922 30.1022 34.3922Z" fill="#2A0B0D"/>
<path d="M24.4225 34.3922H23.3698C23.1593 34.3922 22.7383 34.1816 22.7383 33.7606C22.7383 33.5501 22.9488 33.129 23.3698 33.129H24.4225C24.633 33.129 25.0541 33.3395 25.0541 33.7606C25.0541 34.1816 24.8435 34.3922 24.4225 34.3922Z" fill="#2A0B0D"/>
<path d="M18.944 34.3922H17.8914C17.6809 34.3922 17.2598 34.1816 17.2598 33.7606C17.2598 33.5501 17.4703 33.129 17.8914 33.129H18.944C19.1545 33.129 19.5756 33.3395 19.5756 33.7606C19.365 34.1816 19.1545 34.3922 18.944 34.3922Z" fill="#2A0B0D"/>
<path d="M13.2604 34.3922H12.2077C11.9972 34.3922 11.5762 34.1816 11.5762 33.7606C11.5762 33.5501 11.7867 33.129 12.2077 33.129H13.2604C13.4709 33.129 13.8919 33.3395 13.8919 33.7606C13.8919 34.1816 13.4709 34.3922 13.2604 34.3922Z" fill="#2A0B0D"/>
<path d="M8.20964 34.3922H7.15701C6.94648 34.3922 6.52539 34.1816 6.52539 33.7606C6.52539 33.5501 6.73596 33.129 7.15701 33.129H8.20964C8.42017 33.129 8.84119 33.3395 8.84119 33.7606C8.84119 34.1816 8.42017 34.3922 8.20964 34.3922Z" fill="#2A0B0D"/>
<path d="M10.5241 37.7593H9.47146C9.26094 37.7593 8.83984 37.5488 8.83984 37.1278C8.83984 36.7067 9.05041 36.4962 9.47146 36.4962H10.5241C10.7346 36.4962 11.1556 36.7067 11.1556 37.1278C11.1556 37.5488 10.7346 37.7593 10.5241 37.7593Z" fill="#2A0B0D"/>
<path d="M16.0006 37.7593H14.948C14.7374 37.7593 14.3164 37.5488 14.3164 37.1278C14.3164 36.7067 14.5269 36.4962 14.948 36.4962H16.0006C16.2111 36.4962 16.6322 36.7067 16.6322 37.1278C16.6322 37.5488 16.4216 37.7593 16.0006 37.7593Z" fill="#2A0B0D"/>
<path d="M21.6842 37.7593H20.6316C20.421 37.7593 20 37.5488 20 37.1278C20 36.7067 20.2105 36.4962 20.6316 36.4962H21.6842C21.8947 36.4962 22.3157 36.7067 22.3157 37.1278C22.3157 37.5488 21.8947 37.7593 21.6842 37.7593Z" fill="#2A0B0D"/>
<path d="M27.1569 37.7593H26.1043C25.8937 37.7593 25.4727 37.5488 25.4727 37.1278C25.4727 36.7067 25.6832 36.4962 26.1043 36.4962H27.1569C27.3674 36.4962 27.7885 36.7067 27.7885 37.1278C27.7885 37.5488 27.578 37.7593 27.1569 37.7593Z" fill="#2A0B0D"/>
<path d="M32.8424 37.7593H31.7898C31.5792 37.7593 31.1582 37.5488 31.1582 37.1278C31.1582 36.7067 31.3687 36.4962 31.7898 36.4962H32.8424C33.0529 36.4962 33.474 36.7067 33.474 37.1278C33.474 37.5488 33.2634 37.7593 32.8424 37.7593Z" fill="#2A0B0D"/>
<path d="M38.526 37.7593H37.4734C37.2628 37.7593 36.8418 37.5488 36.8418 37.1278C36.8418 36.7067 37.0523 36.4962 37.4734 36.4962H38.526C38.7365 36.4962 39.1575 36.7067 39.1575 37.1278C39.1575 37.5488 38.7365 37.7593 38.526 37.7593Z" fill="#2A0B0D"/>
<path d="M35.5749 40.4996H34.5222C34.3117 40.4996 33.8906 40.2891 33.8906 39.868C33.8906 39.6575 34.1012 39.2365 34.5222 39.2365H35.5749C35.7854 39.2365 36.2064 39.447 36.2064 39.868C36.2064 40.2891 35.9959 40.4996 35.5749 40.4996Z" fill="#2A0B0D"/>
<path d="M30.1022 40.4996H29.0495C28.839 40.4996 28.418 40.2891 28.418 39.868C28.418 39.6575 28.6285 39.2365 29.0495 39.2365H30.1022C30.3127 39.2365 30.7337 39.447 30.7337 39.868C30.5232 40.2891 30.3127 40.4996 30.1022 40.4996Z" fill="#2A0B0D"/>
<path d="M24.4225 40.4996H23.3698C23.1593 40.4996 22.7383 40.2891 22.7383 39.868C22.7383 39.6575 22.9488 39.2365 23.3698 39.2365H24.4225C24.633 39.2365 25.0541 39.447 25.0541 39.868C25.0541 40.2891 24.8435 40.4996 24.4225 40.4996Z" fill="#2A0B0D"/>
<path d="M18.944 40.4996H17.8914C17.6809 40.4996 17.2598 40.2891 17.2598 39.868C17.2598 39.6575 17.4703 39.2365 17.8914 39.2365H18.944C19.1545 39.2365 19.5756 39.447 19.5756 39.868C19.365 40.2891 19.1545 40.4996 18.944 40.4996Z" fill="#2A0B0D"/>
<path d="M13.2604 40.4996H12.2077C11.9972 40.4996 11.5762 40.2891 11.5762 39.868C11.5762 39.6575 11.7867 39.2365 12.2077 39.2365H13.2604C13.4709 39.2365 13.8919 39.447 13.8919 39.868C13.8919 40.2891 13.4709 40.4996 13.2604 40.4996Z" fill="#2A0B0D"/>
<path d="M33.4712 23.2344C33.2606 23.2344 33.0501 23.0239 32.8395 22.8134C32.8395 22.8134 31.9975 19.866 30.1027 19.2344C29.8922 19.2344 29.6816 18.8134 29.6816 18.6028C29.6816 18.3923 29.8922 18.3923 30.1027 18.1818C32.208 17.5502 32.8395 14.6028 32.8395 14.6028C32.8395 14.3923 33.0501 14.1818 33.4712 14.1818C33.6817 14.1818 33.8922 14.3923 34.1027 14.6028C34.1027 14.6028 34.9449 17.5502 36.8396 18.1818C37.0501 18.1818 37.2606 18.6028 37.2606 18.8133C37.2606 19.0238 37.0501 19.0239 36.8396 19.2344C34.7343 19.866 34.1027 22.8134 34.1027 22.8134C33.8922 23.0239 33.6817 23.2344 33.4712 23.2344ZM31.5764 18.6028C32.4185 19.2344 33.0501 20.0765 33.4712 20.9186C33.8922 20.0765 34.5238 19.2344 35.3659 18.6028C34.5238 17.9713 33.8922 17.1291 33.4712 16.287C33.0501 17.3397 32.4185 17.9713 31.5764 18.6028Z" fill="#2A0B0D"/>
<path d="M23.9981 15.2354C23.7876 15.2354 23.577 15.0249 23.3665 14.8144C23.3665 14.8144 22.9455 12.9196 21.4718 12.4986C21.2613 12.4986 21.0508 12.0775 21.0508 11.867C21.0508 11.6565 21.2613 11.6565 21.4718 11.4459C22.735 11.0249 23.3665 9.13019 23.3665 9.13019C23.3665 8.91966 23.5771 8.70911 23.9981 8.70911C24.2087 8.70911 24.4192 8.91966 24.6297 9.13019C24.6297 9.13019 25.0507 11.0249 26.5244 11.4459C26.7349 11.4459 26.9455 11.867 26.9455 12.0775C26.9455 12.2881 26.7349 12.288 26.5244 12.4986C25.2613 12.9196 24.6297 14.8144 24.6297 14.8144C24.4192 15.0249 24.2087 15.2354 23.9981 15.2354ZM22.735 11.867C23.156 12.2881 23.5771 12.7091 23.7876 13.1302C23.9981 12.7091 24.4192 12.0775 24.8402 11.867C24.4192 11.446 23.9981 11.0249 23.7876 10.6038C23.5771 11.0249 23.156 11.6565 22.735 11.867Z" fill="#2A0B0D"/>
<path d="M12.6271 24.0772C12.4166 24.0772 12.206 23.8667 11.9955 23.6562C11.9955 23.6562 11.5745 21.7614 10.1008 21.3404C9.89024 21.3404 9.67969 20.9193 9.67969 20.7088C9.67969 20.4983 9.89024 20.4982 10.1008 20.2877C11.3639 19.8667 11.9955 17.9719 11.9955 17.9719C11.9955 17.7614 12.2061 17.5509 12.6271 17.5509C12.8376 17.5509 13.0481 17.7614 13.2587 17.9719C13.2587 17.9719 13.6797 19.8667 15.1534 20.2877C15.3639 20.2877 15.5745 20.7087 15.5745 20.9193C15.5745 21.1298 15.3639 21.1298 15.1534 21.3404C13.8902 21.7614 13.2587 23.6562 13.2587 23.6562C13.2587 23.8667 13.0482 24.0772 12.6271 24.0772ZM11.5745 20.7088C11.9955 21.1299 12.4166 21.5509 12.6271 21.9719C12.8376 21.5509 13.2587 20.9193 13.6797 20.7088C13.2587 20.2877 12.8376 19.8667 12.6271 19.4456C12.4166 19.8667 11.9955 20.2877 11.5745 20.7088Z" fill="#2A0B0D"/>
<path d="M17.6829 24.9181H6.94601C6.73548 24.9181 6.31445 25.1286 6.31445 25.5496C6.31445 25.7602 6.52495 26.1812 6.94601 26.1812H17.6829V24.9181Z" fill="#2A0B0D"/>
<path d="M40.6312 24.9181H19.7891V25.9707H40.6312C40.8417 25.9707 41.2627 25.7602 41.2627 25.3391C41.2627 25.1286 41.0522 24.9181 40.6312 24.9181Z" fill="#2A0B0D"/>
<path d="M17.6869 25.9703H16.0026C15.7921 25.9703 15.3711 25.7598 15.3711 25.3387C15.3711 25.1282 15.5816 24.7072 16.0026 24.7072H17.6869C17.8974 24.7072 18.3185 24.9177 18.3185 25.3387C18.3185 25.7598 18.1079 25.9703 17.6869 25.9703Z" fill="#2A0B0D"/>
<path d="M21.4721 25.9703H19.7879C19.5773 25.9703 19.1562 25.7598 19.1562 25.3387C19.1562 25.1282 19.3668 24.7072 19.7879 24.7072H21.4721C21.6826 24.7072 22.1037 24.9177 22.1037 25.3387C22.1037 25.7598 21.8931 25.9703 21.4721 25.9703Z" fill="#2A0B0D"/>
</svg>
