<svg width="48" height="49" viewBox="0 0 48 49" fill="none" xmlns="http://www.w3.org/2000/svg">
<path d="M24 48.5001C37.2549 48.5001 48 37.7549 48 24.5001C48 11.2453 37.2549 0.500122 24 0.500122C10.7452 0.500122 0 11.2453 0 24.5001C0 37.7549 10.7452 48.5001 24 48.5001Z" fill="#D89551"/>
<path d="M30.736 27.4492C31.5781 26.6071 31.9991 25.3439 31.9991 24.2913C31.9991 23.0281 31.5781 21.9755 30.736 21.1334C30.9465 20.7123 31.1571 20.2913 31.1571 19.6597C31.3676 18.186 30.9465 16.7124 30.1044 15.4492C29.8939 15.0281 29.4729 14.8176 29.2623 14.3966C29.6834 13.9755 30.1044 13.3439 30.1044 12.7123C30.1044 11.6597 29.2623 10.6071 28.2097 10.3966V5.97552C28.2097 5.55447 27.9992 5.3439 27.5781 5.3439H20.2097C19.7886 5.3439 19.5781 5.55447 19.5781 5.97552V8.5018C19.5781 8.92285 19.7886 9.13341 20.2097 9.13341C20.2097 9.13341 20.6308 9.34391 20.8413 8.71234V6.39653H26.9465V10.6071C26.9465 11.0281 27.1571 11.2387 27.5781 11.2387C28.2097 11.2387 28.8413 11.8703 28.8413 12.5018C28.8413 12.9229 28.6308 13.344 28.2097 13.5545C27.9992 13.5545 27.9992 13.765 27.9992 13.9755C27.9992 14.186 27.9992 14.186 27.9992 14.3966C28.4202 15.0281 28.8413 15.6597 29.2623 16.0808C30.1044 16.9229 30.315 17.9755 30.1044 19.2386C29.8939 20.7123 28.6308 21.765 27.1571 22.186C26.315 22.3965 25.6834 22.1861 25.0518 21.9755C25.8939 21.1334 26.3149 20.0808 26.3149 18.8176V18.6071H25.2623V18.8176C25.0518 20.7124 23.5781 22.186 21.4728 22.186C19.3676 22.186 17.6834 20.5018 17.6834 18.3966C17.6834 17.5545 18.1044 16.7123 18.5255 15.8702C19.9992 14.3965 20.6307 12.5018 20.6307 10.3966V10.186C20.6307 9.76499 20.4202 9.55443 19.9992 9.55443C19.5781 9.55443 19.3676 9.76499 19.3676 10.186V10.3966C19.3676 12.0808 18.736 13.765 17.4728 15.0281C16.6307 15.8702 16.2097 17.1334 16.2097 18.186C16.2097 19.0281 16.4202 19.8702 16.8413 20.5018C15.9992 21.3439 15.5781 22.3966 15.5781 23.6597C15.5781 24.9229 15.9992 25.9755 16.8413 26.8176C16.4202 27.4492 16.2097 28.2913 16.2097 29.1334C16.2097 30.186 16.6307 31.2387 17.2623 32.0808C17.0518 32.5018 16.8413 32.9229 16.8413 33.3439C16.8413 34.6071 17.8939 35.6597 19.1571 35.6597C19.1571 36.0808 19.3676 36.5018 19.3676 36.7124V41.765C19.3676 42.186 19.5781 42.3965 19.9992 42.3965H27.3676C27.7886 42.3965 27.9992 42.186 27.9992 41.765V36.7124C27.9992 35.0282 28.6307 33.3439 29.8939 32.0808C30.9465 31.0281 31.3676 29.5544 30.9465 27.8702C31.157 28.2913 30.9465 27.8702 30.736 27.4492ZM17.2623 24.2913C17.2623 23.4492 17.4728 22.8176 17.8939 22.186C18.736 23.2386 19.9992 23.6597 21.4728 23.6597C22.3149 23.6597 23.1571 23.4492 23.9992 23.0282C25.0518 23.6597 26.3149 23.8702 27.3676 23.6597C28.4202 23.4492 29.2623 23.0281 29.8939 22.186C30.3149 22.8176 30.5255 23.6597 30.5255 24.2913C30.5255 24.9228 30.3149 25.765 29.8939 26.3965C29.2623 25.5544 28.2097 25.1334 27.3676 24.9229C26.1044 24.7124 25.0518 24.9229 23.9992 25.5544C23.3676 25.1334 22.5255 24.9229 21.4728 24.9229C20.2097 24.9229 18.9465 25.5544 17.8939 26.3965C17.4728 25.765 17.2623 25.1334 17.2623 24.2913ZM29.2623 32.0808C27.7886 33.5544 27.1571 35.4492 27.1571 37.5545V41.9755H21.0518V37.5545C21.0518 36.9229 21.0518 36.2913 20.8413 35.6597C20.8413 35.4492 20.6307 35.4492 20.6307 35.2387C20.4202 35.2387 20.4202 35.2387 20.2097 35.2387H19.9992C19.3676 35.2387 18.736 34.6071 18.736 33.9755C18.736 33.5544 18.9465 33.3439 19.1571 33.1334C19.3676 33.1334 19.3676 32.9228 19.3676 32.7123C19.3676 32.5018 19.3676 32.5018 19.1571 32.2913C18.5255 31.6597 18.1044 30.6071 18.1044 29.765C18.1044 27.6597 19.7887 25.9755 21.8939 25.9755C23.7886 25.9755 25.4728 27.4492 25.6834 29.344V29.5544H26.736V29.344C26.736 28.0808 26.1044 27.0282 25.4729 26.1861C26.1044 25.9755 26.9465 25.765 27.5781 25.9755C29.0518 26.186 30.1045 27.4492 30.5255 28.9229C30.315 30.186 29.8939 31.2387 29.2623 32.0808Z" fill="#0F0708"/>
<path d="M20.4167 9.33929C19.9957 9.33929 19.7852 9.12872 19.7852 8.70767V6.60241C19.7852 6.18136 19.9957 5.97086 20.4167 5.97086C20.8378 5.97086 21.0483 6.18136 21.0483 6.60241V8.70767C20.8378 9.12872 20.6272 9.33929 20.4167 9.33929Z" fill="#0F0708"/>
<path d="M21.6841 21.1263C19.7894 20.9158 18.9473 19.2316 18.9473 18.3895C18.9473 18.179 19.1578 17.758 19.3683 17.758C19.5788 17.758 19.9999 17.9685 19.9999 18.179C19.9999 18.3895 20.2104 19.8632 21.6841 19.8632C21.8946 19.8632 22.1052 20.0737 22.1052 20.4948C22.1052 20.9158 21.8946 21.1263 21.6841 21.1263Z" fill="#0F0708"/>
<path d="M19.5798 30.3968C19.3693 30.3968 19.3693 30.3968 19.5798 30.3968C19.1588 30.3968 18.9482 29.9757 19.1588 29.7652C19.5798 27.8704 21.264 27.4494 22.1061 27.4494C22.3166 27.4494 22.5272 27.6599 22.5272 28.081C22.5272 28.2915 22.3166 28.502 22.1061 28.502C21.8956 28.502 20.4219 28.502 20.2114 29.9757C20.0009 30.1862 19.7903 30.3968 19.5798 30.3968Z" fill="#0F0708"/>
</svg>
