<svg width="48" height="49" viewBox="0 0 48 49" fill="none" xmlns="http://www.w3.org/2000/svg">
<path d="M24 48.5001C37.2548 48.5001 48 37.755 48 24.5001C48 11.2453 37.2548 0.500122 24 0.500122C10.7452 0.500122 0 11.2453 0 24.5001C0 37.755 10.7452 48.5001 24 48.5001Z" fill="#D89551"/>
<path d="M16.8416 39.6595C16.21 38.3963 15.789 36.7121 15.789 35.2384V33.7647C15.789 33.1331 15.7889 32.5015 15.9994 31.87C15.9994 31.6594 15.9995 31.2384 15.5784 31.2384C15.3679 31.2384 14.9468 31.2384 14.9468 31.6594C14.7363 32.291 14.7363 33.1331 14.7363 33.7647V35.2384C14.7363 36.9226 15.1573 38.6068 15.9994 40.0805L16.8416 41.5542C17.0521 41.7647 17.2626 41.9753 17.4731 41.7647C17.6837 41.5542 17.8942 41.3436 17.6837 41.1331L16.8416 39.6595Z" fill="#2A0B0D"/>
<path d="M38.7356 28.5001C38.5251 28.5001 38.104 28.7107 38.104 28.9212C38.104 30.3949 37.683 31.8686 36.8409 33.1317C35.9988 34.6054 34.7356 35.658 33.2619 36.2896C32.2093 36.9212 31.3672 37.9738 31.3672 39.237V41.1317C31.3672 41.3422 31.5777 41.5528 31.7882 41.5528C31.9987 41.5528 32.2093 41.3422 32.2093 41.1317V39.237C32.2093 38.3949 32.6303 37.5528 33.4725 37.1317C35.1567 36.2896 36.6303 35.0265 37.4724 33.5528C38.3145 32.0791 38.9462 30.3949 38.9462 28.7107C39.1567 28.9212 38.9461 28.7106 38.7356 28.5001Z" fill="#2A0B0D"/>
<path d="M28.6302 10.8177L33.8934 13.1335C34.7355 13.5545 35.3671 14.3966 35.3671 15.4493V16.0808C35.3671 16.5019 35.1565 16.7124 34.946 16.9229L33.6829 17.9756L31.9986 16.5019C31.7881 16.2914 31.3671 16.2914 31.1565 16.5019C30.946 16.7124 30.946 17.1335 31.1565 17.344C32.2092 18.1861 33.8934 19.8703 34.7355 20.7124C36.4197 22.3967 37.4723 24.5019 37.6829 26.6072C37.6829 26.8177 37.8934 27.0282 38.1039 27.0282C38.3144 27.0282 38.525 26.8177 38.525 26.3966C38.3144 23.8703 37.0513 21.5546 35.1565 19.8703L33.8934 18.6072L34.946 17.7651C35.367 17.344 35.7881 16.7124 35.7881 16.0808V15.4493C35.7881 13.9756 34.946 12.923 33.6829 12.2914L28.4197 9.97558C26.946 9.344 27.1565 7.87032 27.1565 6.81769C27.1565 6.60716 26.946 6.39661 26.7355 6.39661C26.5249 6.39661 26.3145 6.60716 26.3145 6.81769C26.525 8.71242 27.1565 9.97557 28.6302 10.8177Z" fill="#2A0B0D"/>
<path d="M32.8396 32.2943L35.7871 29.3469C36.4186 28.7153 36.6291 27.6627 36.2081 26.61C35.787 25.5574 34.5239 24.9258 33.2607 25.3469C31.5765 25.9784 31.366 25.5574 30.5239 25.3469C29.4713 24.9258 28.2081 25.5574 27.5765 26.61C27.1554 27.4521 27.366 28.5048 27.9975 29.3469L30.9449 32.2943C31.1554 32.5048 31.3659 32.7153 31.787 32.7153C32.2081 32.5048 32.6291 32.5048 32.8396 32.2943ZM29.0502 28.5047C28.6291 28.0837 28.6291 27.4522 28.8396 27.0311C29.0502 26.3995 29.6818 26.189 30.5239 26.3995L31.787 26.8206C31.9975 26.8206 32.2081 26.8206 32.4186 26.8206L33.6818 26.3995C34.3134 26.189 34.9449 26.3995 35.366 27.0311C35.5765 27.4522 35.5765 28.0837 35.1554 28.5047L32.2081 31.4522C32.2081 31.4522 32.2081 31.4522 31.9975 31.4522L29.0502 28.5047Z" fill="#2A0B0D"/>
<path d="M25.2633 28.0796L24.4211 27.8691C24.4211 27.2375 23.7896 26.6059 23.158 26.6059C22.9475 26.6059 22.5265 26.6059 22.1054 26.6059L21.0528 26.8164L18.9475 24.7112V19.6586L21.4738 16.7112C22.7369 15.2375 23.579 13.3428 23.579 11.2375C23.579 11.027 23.3686 10.8164 23.158 10.8164C22.9475 10.8164 22.737 11.027 22.737 11.2375C22.737 12.9217 22.1054 14.6059 21.0528 16.0796L16.2106 21.7638C15.7896 22.1849 15.7896 22.8164 16.2106 23.2375L20.8422 27.6585C21.0528 27.8691 21.2632 27.8691 21.2632 27.8691L22.5264 27.448H23.3685C23.579 27.448 23.7896 27.6585 23.7896 27.8691V28.0796C23.7896 28.2901 24.0001 28.5006 24.2107 28.5006L25.4738 28.7112C25.6843 28.7112 25.8948 29.1323 25.8948 29.3428V30.1849C25.8948 30.6059 25.4738 30.8164 25.2633 30.8164H21.6843C21.4738 30.8164 21.2633 30.8164 20.8422 30.6059L11.3685 25.1322C10.737 24.7112 10.1054 23.8691 10.1054 23.027V21.7638C10.1054 21.3428 10.3159 20.7112 10.5264 20.5006L17.4738 10.1849C18.1054 9.34276 19.158 8.71115 20.2106 8.71115C20.4211 8.71115 20.6317 8.50066 20.6317 8.29014C20.6317 8.07961 20.4211 7.86906 20.2106 7.86906C19.7896 7.86906 19.3685 7.86907 18.737 8.0796V6.18487C18.737 5.97435 18.5264 5.76379 18.3159 5.76379C18.1054 5.76379 17.8949 5.97435 17.8949 6.18487V8.50061C17.4738 8.71114 17.0528 9.1322 16.6317 9.76378L9.68429 20.0796C9.26324 20.7111 9.05273 21.3428 9.05273 21.9744V23.2375C9.05273 24.5006 9.68429 25.5533 10.7369 26.1849L20.2106 31.6585C20.6317 31.869 21.0527 32.0796 21.4738 32.0796H25.0528C26.1054 32.0796 26.7369 31.2375 26.7369 30.3954V29.5533C26.7369 28.9217 26.1054 28.2901 25.2633 28.0796ZM16.6317 22.8164L17.8949 21.3427V24.0796L16.6317 22.8164C16.4212 22.8164 16.4212 22.8164 16.6317 22.8164Z" fill="#2A0B0D"/>
</svg>
